Gharbi-Extra Light.ufo
<glyph name="ampersand" format="2">
  <advance width="1247"/>
  <unicode hex="0026"/>
  <note>
uni0026
</note>
  <outline>
    <contour>
      <point x="381" y="761" type="line" smooth="yes"/>
      <point x="197" y="606"/>
      <point x="134" y="492"/>
      <point x="134" y="366" type="curve" smooth="yes"/>
      <point x="134" y="146"/>
      <point x="294" y="7"/>
      <point x="553" y="7" type="curve" smooth="yes"/>
      <point x="698" y="7"/>
      <point x="834" y="70"/>
      <point x="961" y="196" type="curve"/>
      <point x="1112" y="26" type="line"/>
      <point x="1177" y="26" type="line"/>
      <point x="993" y="234" type="line"/>
      <point x="1079" y="349"/>
      <point x="1122" y="483"/>
      <point x="1122" y="635" type="curve"/>
      <point x="1069" y="635" type="line"/>
      <point x="1069" y="498"/>
      <point x="1032" y="378"/>
      <point x="958" y="275" type="curve"/>
      <point x="500" y="795" type="line"/>
      <point x="650" y="914" type="line" smooth="yes"/>
      <point x="771" y="1014"/>
      <point x="831" y="1108"/>
      <point x="831" y="1196" type="curve" smooth="yes"/>
      <point x="831" y="1346"/>
      <point x="726" y="1450"/>
      <point x="565" y="1450" type="curve" smooth="yes"/>
      <point x="391" y="1450"/>
      <point x="271" y="1332"/>
      <point x="271" y="1151" type="curve" smooth="yes"/>
      <point x="271" y="1042"/>
      <point x="318" y="938"/>
      <point x="430" y="799" type="curve"/>
    </contour>
    <contour>
      <point x="553" y="59" type="curve" smooth="yes"/>
      <point x="330" y="59"/>
      <point x="187" y="183"/>
      <point x="187" y="366" type="curve" smooth="yes"/>
      <point x="187" y="482"/>
      <point x="260" y="592"/>
      <point x="411" y="723" type="curve"/>
      <point x="461" y="763" type="line"/>
      <point x="927" y="235" type="line"/>
      <point x="830" y="123"/>
      <point x="696" y="59"/>
    </contour>
    <contour>
      <point x="324" y="1153" type="curve" smooth="yes"/>
      <point x="324" y="1299"/>
      <point x="420" y="1398"/>
      <point x="565" y="1398" type="curve" smooth="yes"/>
      <point x="690" y="1398"/>
      <point x="777" y="1314"/>
      <point x="777" y="1196" type="curve" smooth="yes"/>
      <point x="777" y="1119"/>
      <point x="731" y="1042"/>
      <point x="638" y="964" type="curve" smooth="yes"/>
      <point x="469" y="830" type="line"/>
      <point x="373" y="944"/>
      <point x="324" y="1052"/>
    </contour>
  </outline>
</glyph>
<glyph name="hyphen" format="2">
  <advance width="973"/>
  <unicode hex="002D"/>
  <outline>
    <contour>
      <point x="849" y="560" type="line"/>
      <point x="127" y="560" type="line"/>
      <point x="127" y="508" type="line"/>
      <point x="849" y="508" type="line"/>
    </contour>
  </outline>
</glyph>
<glyph name="period" format="2">
  <advance width="398"/>
  <unicode hex="002E"/>
  <outline>
    <contour>
      <point x="198" y="7" type="curve" smooth="yes"/>
      <point x="241" y="7"/>
      <point x="278" y="41"/>
      <point x="278" y="85" type="curve" smooth="yes"/>
      <point x="278" y="128"/>
      <point x="241" y="165"/>
      <point x="198" y="165" type="curve" smooth="yes"/>
      <point x="154" y="165"/>
      <point x="120" y="128"/>
      <point x="120" y="85" type="curve" smooth="yes"/>
      <point x="120" y="41"/>
      <point x="154" y="7"/>
    </contour>
  </outline>
</glyph>
<glyph name="zero" format="2">
  <advance width="1121"/>
  <unicode hex="0030"/>
  <note>
uni0030
</note>
  <outline>
    <contour>
      <point x="980" y="827" type="line" smooth="yes"/>
      <point x="980" y="1206"/>
      <point x="827" y="1424"/>
      <point x="560" y="1424" type="curve" smooth="yes"/>
      <point x="295" y="1424"/>
      <point x="141" y="1204"/>
      <point x="141" y="831" type="curve" smooth="yes"/>
      <point x="141" y="576" type="line" smooth="yes"/>
      <point x="141" y="199"/>
      <point x="298" y="-19"/>
      <point x="562" y="-19" type="curve" smooth="yes"/>
      <point x="827" y="-19"/>
      <point x="980" y="196"/>
      <point x="980" y="573" type="curve" smooth="yes"/>
    </contour>
    <contour>
      <point x="928" y="579" type="line" smooth="yes"/>
      <point x="928" y="234"/>
      <point x="795" y="33"/>
      <point x="562" y="33" type="curve" smooth="yes"/>
      <point x="329" y="33"/>
      <point x="193" y="235"/>
      <point x="193" y="575" type="curve" smooth="yes"/>
      <point x="193" y="826" type="line" smooth="yes"/>
      <point x="193" y="1171"/>
      <point x="324" y="1372"/>
      <point x="560" y="1372" type="curve" smooth="yes"/>
      <point x="795" y="1372"/>
      <point x="928" y="1171"/>
      <point x="928" y="831" type="curve" smooth="yes"/>
    </contour>
  </outline>
</glyph>
<glyph name="five" format="2">
  <advance width="1121"/>
  <unicode hex="0035"/>
  <note>
uni0035
</note>
  <outline>
    <contour>
      <point x="282" y="719" type="line"/>
      <point x="362" y="796"/>
      <point x="459" y="831"/>
      <point x="594" y="831" type="curve" smooth="yes"/>
      <point x="814" y="831"/>
      <point x="954" y="680"/>
      <point x="954" y="445" type="curve" smooth="yes"/>
      <point x="954" y="174"/>
      <point x="844" y="33"/>
      <point x="612" y="33" type="curve" smooth="yes"/>
      <point x="395" y="33"/>
      <point x="269" y="149"/>
      <point x="249" y="369" type="curve"/>
      <point x="196" y="369" type="line"/>
      <point x="215" y="126"/>
      <point x="372" y="-19"/>
      <point x="612" y="-19" type="curve" smooth="yes"/>
      <point x="867" y="-19"/>
      <point x="1007" y="143"/>
      <point x="1007" y="447" type="curve" smooth="yes"/>
      <point x="1007" y="710"/>
      <point x="845" y="883"/>
      <point x="593" y="883" type="curve" smooth="yes"/>
      <point x="488" y="883"/>
      <point x="366" y="845"/>
      <point x="299" y="790" type="curve"/>
      <point x="356" y="1352" type="line"/>
      <point x="993" y="1352" type="line"/>
      <point x="993" y="1404" type="line"/>
      <point x="308" y="1404" type="line"/>
      <point x="243" y="735" type="line"/>
    </contour>
  </outline>
</glyph>
<glyph name="seven" format="2">
  <advance width="1121"/>
  <unicode hex="0037"/>
  <note>
uni0037
</note>
  <outline>
    <contour>
      <point x="991" y="1404" type="line"/>
      <point x="94" y="1404" type="line"/>
      <point x="94" y="1352" type="line"/>
      <point x="931" y="1352" type="line"/>
      <point x="320" y="0" type="line"/>
      <point x="373" y="0" type="line"/>
      <point x="991" y="1371" type="line"/>
    </contour>
  </outline>
</glyph>
<glyph name="eight" format="2">
  <advance width="1121"/>
  <unicode hex="0038"/>
  <note>
uni0038
</note>
  <outline>
    <contour>
      <point x="971" y="1047" type="curve" smooth="yes"/>
      <point x="971" y="1274"/>
      <point x="805" y="1423"/>
      <point x="561" y="1423" type="curve" smooth="yes"/>
      <point x="318" y="1423"/>
      <point x="156" y="1278"/>
      <point x="156" y="1047" type="curve" smooth="yes"/>
      <point x="156" y="890"/>
      <point x="260" y="765"/>
      <point x="413" y="718" type="curve"/>
      <point x="230" y="670"/>
      <point x="117" y="532"/>
      <point x="117" y="365" type="curve" smooth="yes"/>
      <point x="117" y="128"/>
      <point x="290" y="-19"/>
      <point x="565" y="-19" type="curve" smooth="yes"/>
      <point x="834" y="-19"/>
      <point x="1011" y="128"/>
      <point x="1011" y="365" type="curve" smooth="yes"/>
      <point x="1011" y="530"/>
      <point x="893" y="670"/>
      <point x="709" y="718" type="curve"/>
      <point x="864" y="765"/>
      <point x="971" y="890"/>
    </contour>
    <contour>
      <point x="958" y="361" type="curve" smooth="yes"/>
      <point x="958" y="164"/>
      <point x="801" y="33"/>
      <point x="565" y="33" type="curve" smooth="yes"/>
      <point x="324" y="33"/>
      <point x="169" y="162"/>
      <point x="169" y="361" type="curve" smooth="yes"/>
      <point x="169" y="554"/>
      <point x="330" y="692"/>
      <point x="563" y="692" type="curve" smooth="yes"/>
      <point x="794" y="692"/>
      <point x="958" y="553"/>
    </contour>
    <contour>
      <point x="919" y="1052" type="curve" smooth="yes"/>
      <point x="919" y="872"/>
      <point x="771" y="744"/>
      <point x="563" y="744" type="curve" smooth="yes"/>
      <point x="352" y="744"/>
      <point x="208" y="869"/>
      <point x="208" y="1052" type="curve" smooth="yes"/>
      <point x="208" y="1243"/>
      <point x="354" y="1371"/>
      <point x="561" y="1371" type="curve" smooth="yes"/>
      <point x="762" y="1371"/>
      <point x="919" y="1235"/>
    </contour>
  </outline>
</glyph>
<glyph name="nine" format="2">
  <advance width="1121"/>
  <unicode hex="0039"/>
  <note>
uni0039
</note>
  <outline>
    <contour>
      <point x="925" y="698" type="curve"/>
      <point x="925" y="368"/>
      <point x="853" y="38"/>
      <point x="309" y="33" type="curve"/>
      <point x="307" y="-19" type="line"/>
      <point x="906" y="-12"/>
      <point x="977" y="366"/>
      <point x="977" y="713" type="curve" smooth="yes"/>
      <point x="977" y="874" type="line" smooth="yes"/>
      <point x="976" y="1229"/>
      <point x="821" y="1423"/>
      <point x="532" y="1423" type="curve" smooth="yes"/>
      <point x="275" y="1423"/>
      <point x="119" y="1180"/>
      <point x="119" y="924" type="curve" smooth="yes"/>
      <point x="119" y="673"/>
      <point x="281" y="451"/>
      <point x="524" y="451" type="curve" smooth="yes"/>
      <point x="704" y="451"/>
      <point x="857" y="550"/>
    </contour>
    <contour>
      <point x="524" y="503" type="curve" smooth="yes"/>
      <point x="303" y="503"/>
      <point x="172" y="703"/>
      <point x="172" y="924" type="curve" smooth="yes"/>
      <point x="172" y="1148"/>
      <point x="312" y="1371"/>
      <point x="536" y="1371" type="curve" smooth="yes"/>
      <point x="787" y="1371"/>
      <point x="925" y="1194"/>
      <point x="925" y="870" type="curve" smooth="yes"/>
      <point x="925" y="810" type="line"/>
      <point x="874" y="625"/>
      <point x="715" y="503"/>
    </contour>
  </outline>
</glyph>
<glyph name="equal" format="2">
  <advance width="1020"/>
  <unicode hex="003D"/>
  <note>
uni003D
</note>
  <outline>
    <contour>
      <point x="911" y="927" type="line"/>
      <point x="107" y="927" type="line"/>
      <point x="107" y="875" type="line"/>
      <point x="911" y="875" type="line"/>
    </contour>
    <contour>
      <point x="911" y="534" type="line"/>
      <point x="107" y="534" type="line"/>
      <point x="107" y="482" type="line"/>
      <point x="911" y="482" type="line"/>
    </contour>
  </outline>
</glyph>
<glyph name="at" format="2">
  <advance width="1640"/>
  <unicode hex="0040"/>
  <note>
uni0040
</note>
  <outline>
    <contour>
      <point x="1539" y="517" type="curve" smooth="yes"/>
      <point x="1561" y="1014"/>
      <point x="1325" y="1288"/>
      <point x="867" y="1288" type="curve" smooth="yes"/>
      <point x="399" y="1288"/>
      <point x="121" y="946"/>
      <point x="101" y="478" type="curve" smooth="yes"/>
      <point x="81" y="11"/>
      <point x="310" y="-329"/>
      <point x="784" y="-330" type="curve" smooth="yes"/>
      <point x="889" y="-330"/>
      <point x="1022" y="-302"/>
      <point x="1098" y="-253" type="curve"/>
      <point x="1076" y="-213" type="line"/>
      <point x="1001" y="-256"/>
      <point x="892" y="-282"/>
      <point x="786" y="-282" type="curve" smooth="yes"/>
      <point x="352" y="-282"/>
      <point x="130" y="56"/>
      <point x="150" y="478" type="curve" smooth="yes"/>
      <point x="172" y="906"/>
      <point x="445" y="1240"/>
      <point x="863" y="1239" type="curve" smooth="yes"/>
      <point x="1297" y="1239"/>
      <point x="1515" y="993"/>
      <point x="1489" y="517" type="curve" smooth="yes"/>
      <point x="1476" y="251"/>
      <point x="1374" y="93"/>
      <point x="1217" y="93" type="curve" smooth="yes"/>
      <point x="1102" y="93"/>
      <point x="1042" y="175"/>
      <point x="1055" y="318" type="curve" smooth="yes"/>
      <point x="1099" y="826" type="line"/>
      <point x="996" y="908"/>
      <point x="967" y="921"/>
      <point x="879" y="921" type="curve" smooth="yes"/>
      <point x="679" y="921"/>
      <point x="523" y="732"/>
      <point x="495" y="442" type="curve" smooth="yes"/>
      <point x="474" y="202"/>
      <point x="556" y="46"/>
      <point x="715" y="46" type="curve" smooth="yes"/>
      <point x="846" y="46"/>
      <point x="944" y="112"/>
      <point x="1008" y="246" type="curve"/>
      <point x="1020" y="120"/>
      <point x="1097" y="46"/>
      <point x="1214" y="46" type="curve" smooth="yes"/>
      <point x="1434" y="46"/>
      <point x="1531" y="300"/>
    </contour>
    <contour>
      <point x="561" y="547" type="curve" smooth="yes"/>
      <point x="607" y="750"/>
      <point x="727" y="874"/>
      <point x="877" y="874" type="curve" smooth="yes"/>
      <point x="950" y="874"/>
      <point x="1008" y="849"/>
      <point x="1049" y="802" type="curve"/>
      <point x="1010" y="362" type="line"/>
      <point x="951" y="183"/>
      <point x="860" y="93"/>
      <point x="714" y="93" type="curve" smooth="yes"/>
      <point x="523" y="93"/>
      <point x="520" y="366"/>
    </contour>
  </outline>
</glyph>
<glyph name="C" format="2">
  <advance width="1279"/>
  <unicode hex="0043"/>
  <note>
uni0043
</note>
  <outline>
    <contour>
      <point x="1095" y="430" type="line"/>
      <point x="1068" y="165"/>
      <point x="915" y="33"/>
      <point x="647" y="33" type="curve" smooth="yes"/>
      <point x="342" y="33"/>
      <point x="191" y="298"/>
      <point x="191" y="597" type="curve" smooth="yes"/>
      <point x="191" y="803" type="line" smooth="yes"/>
      <point x="191" y="1149"/>
      <point x="374" y="1371"/>
      <point x="647" y="1371" type="curve" smooth="yes"/>
      <point x="914" y="1371"/>
      <point x="1065" y="1234"/>
      <point x="1095" y="976" type="curve"/>
      <point x="1147" y="976" type="line"/>
      <point x="1120" y="1263"/>
      <point x="940" y="1423"/>
      <point x="647" y="1423" type="curve" smooth="yes"/>
      <point x="315" y="1423"/>
      <point x="139" y="1143"/>
      <point x="139" y="807" type="curve" smooth="yes"/>
      <point x="139" y="590" type="line" smooth="yes"/>
      <point x="140" y="254"/>
      <point x="319" y="-19"/>
      <point x="647" y="-19" type="curve" smooth="yes"/>
      <point x="942" y="-19"/>
      <point x="1120" y="141"/>
      <point x="1147" y="430" type="curve"/>
    </contour>
  </outline>
</glyph>
<glyph name="I" format="2">
  <advance width="514"/>
  <unicode hex="0049"/>
  <note>
uni0049
</note>
  <outline>
    <contour>
      <point x="283" y="1404" type="line"/>
      <point x="231" y="1404" type="line"/>
      <point x="231" y="0" type="line"/>
      <point x="283" y="0" type="line"/>
    </contour>
  </outline>
</glyph>
<glyph name="J" format="2">
  <advance width="1085"/>
  <unicode hex="004A"/>
  <note>
uni004A
</note>
  <outline>
    <contour>
      <point x="845" y="416" type="line" smooth="yes"/>
      <point x="841" y="180"/>
      <point x="698" y="33"/>
      <point x="492" y="33" type="curve" smooth="yes"/>
      <point x="257" y="33"/>
      <point x="139" y="158"/>
      <point x="139" y="387" type="curve"/>
      <point x="87" y="387" type="line"/>
      <point x="87" y="126"/>
      <point x="230" y="-19"/>
      <point x="492" y="-19" type="curve" smooth="yes"/>
      <point x="736" y="-19"/>
      <point x="897" y="155"/>
      <point x="897" y="426" type="curve" smooth="yes"/>
      <point x="897" y="1404" type="line"/>
      <point x="845" y="1404" type="line"/>
    </contour>
  </outline>
</glyph>
<glyph name="K" format="2">
  <advance width="1253"/>
  <unicode hex="004B"/>
  <note>
uni004B
</note>
  <outline>
    <contour>
      <point x="1115" y="0" type="line"/>
      <point x="1182" y="0" type="line"/>
      <point x="508" y="774" type="line"/>
      <point x="1134" y="1404" type="line"/>
      <point x="1059" y="1404" type="line"/>
      <point x="477" y="818" type="line"/>
      <point x="245" y="592" type="line"/>
      <point x="245" y="1404" type="line"/>
      <point x="193" y="1404" type="line"/>
      <point x="193" y="0" type="line"/>
      <point x="245" y="0" type="line"/>
      <point x="245" y="531" type="line"/>
      <point x="470" y="738" type="line"/>
    </contour>
  </outline>
</glyph>
<glyph name="M" format="2">
  <advance width="1694"/>
  <unicode hex="004D"/>
  <note>
uni004D
</note>
  <outline>
    <contour>
      <point x="193" y="1404" type="line"/>
      <point x="193" y="0" type="line"/>
      <point x="245" y="0" type="line"/>
      <point x="245" y="1320" type="line"/>
      <point x="825" y="0" type="line"/>
      <point x="866" y="0" type="line"/>
      <point x="1449" y="1326" type="line"/>
      <point x="1449" y="0" type="line"/>
      <point x="1501" y="0" type="line"/>
      <point x="1501" y="1404" type="line"/>
      <point x="1424" y="1404" type="line"/>
      <point x="845" y="76" type="line"/>
      <point x="268" y="1404" type="line"/>
    </contour>
  </outline>
</glyph>
<glyph name="N" format="2">
  <advance width="1397"/>
  <unicode hex="004E"/>
  <note>
uni004E
</note>
  <outline>
    <contour>
      <point x="1204" y="1404" type="line"/>
      <point x="1152" y="1404" type="line"/>
      <point x="1152" y="92" type="line"/>
      <point x="246" y="1404" type="line"/>
      <point x="193" y="1404" type="line"/>
      <point x="193" y="0" type="line"/>
      <point x="246" y="0" type="line"/>
      <point x="246" y="1315" type="line"/>
      <point x="1152" y="0" type="line"/>
      <point x="1204" y="0" type="line"/>
    </contour>
  </outline>
</glyph>
<glyph name="P" format="2">
  <advance width="1186"/>
  <unicode hex="0050"/>
  <note>
uni0050
</note>
  <outline>
    <contour>
      <point x="638" y="593" type="line" smooth="yes"/>
      <point x="924" y="595"/>
      <point x="1085" y="739"/>
      <point x="1085" y="994" type="curve" smooth="yes"/>
      <point x="1085" y="1251"/>
      <point x="918" y="1404"/>
      <point x="632" y="1404" type="curve" smooth="yes"/>
      <point x="193" y="1404" type="line"/>
      <point x="193" y="0" type="line"/>
      <point x="245" y="0" type="line"/>
      <point x="245" y="593" type="line"/>
    </contour>
    <contour>
      <point x="245" y="1352" type="line"/>
      <point x="632" y="1352" type="line" smooth="yes"/>
      <point x="885" y="1352"/>
      <point x="1033" y="1218"/>
      <point x="1033" y="992" type="curve" smooth="yes"/>
      <point x="1033" y="773"/>
      <point x="885" y="645"/>
      <point x="632" y="645" type="curve" smooth="yes"/>
      <point x="245" y="645" type="line"/>
    </contour>
  </outline>
</glyph>
<glyph name="Q" format="2">
  <advance width="1314"/>
  <unicode hex="0051"/>
  <note>
uni0051
</note>
  <outline>
    <contour>
      <point x="1186" y="807" type="line" smooth="yes"/>
      <point x="1186" y="1152"/>
      <point x="993" y="1423"/>
      <point x="656" y="1423" type="curve" smooth="yes"/>
      <point x="311" y="1423"/>
      <point x="128" y="1144"/>
      <point x="128" y="807" type="curve" smooth="yes"/>
      <point x="128" y="604" type="line" smooth="yes"/>
      <point x="128" y="223"/>
      <point x="342" y="-19"/>
      <point x="658" y="-19" type="curve" smooth="yes"/>
      <point x="719" y="-19"/>
      <point x="778" y="-10"/>
      <point x="836" y="10" type="curve"/>
      <point x="1110" y="-254" type="line"/>
      <point x="1148" y="-220" type="line"/>
      <point x="890" y="32" type="line"/>
      <point x="1081" y="127"/>
      <point x="1186" y="335"/>
      <point x="1186" y="597" type="curve" smooth="yes"/>
    </contour>
    <contour>
      <point x="1134" y="604" type="line" smooth="yes"/>
      <point x="1134" y="251"/>
      <point x="951" y="33"/>
      <point x="658" y="33" type="curve" smooth="yes"/>
      <point x="344" y="33"/>
      <point x="181" y="281"/>
      <point x="181" y="597" type="curve" smooth="yes"/>
      <point x="181" y="802" type="line" smooth="yes"/>
      <point x="181" y="1153"/>
      <point x="367" y="1371"/>
      <point x="656" y="1371" type="curve" smooth="yes"/>
      <point x="949" y="1371"/>
      <point x="1134" y="1148"/>
      <point x="1134" y="809" type="curve" smooth="yes"/>
    </contour>
  </outline>
</glyph>
<glyph name="R" format="2">
  <advance width="1292"/>
  <unicode hex="0052"/>
  <note>
uni0052
</note>
  <outline>
    <contour>
      <point x="1100" y="0" type="line"/>
      <point x="1155" y="0" type="line"/>
      <point x="1155" y="13" type="line"/>
      <point x="780" y="614" type="line"/>
      <point x="964" y="649"/>
      <point x="1096" y="807"/>
      <point x="1096" y="999" type="curve" smooth="yes"/>
      <point x="1096" y="1248"/>
      <point x="917" y="1404"/>
      <point x="635" y="1404" type="curve" smooth="yes"/>
      <point x="188" y="1404" type="line"/>
      <point x="188" y="0" type="line"/>
      <point x="240" y="0" type="line"/>
      <point x="240" y="601" type="line"/>
      <point x="727" y="601" type="line"/>
    </contour>
    <contour>
      <point x="240" y="1352" type="line"/>
      <point x="632" y="1352" type="line" smooth="yes"/>
      <point x="887" y="1352"/>
      <point x="1044" y="1217"/>
      <point x="1044" y="999" type="curve" smooth="yes"/>
      <point x="1044" y="799"/>
      <point x="899" y="653"/>
      <point x="683" y="653" type="curve" smooth="yes"/>
      <point x="240" y="653" type="line"/>
    </contour>
  </outline>
</glyph>
<glyph name="U" format="2">
  <advance width="1315"/>
  <unicode hex="0055"/>
  <note>
uni0055
</note>
  <outline>
    <contour>
      <point x="1085" y="1404" type="line"/>
      <point x="1085" y="456" type="line" smooth="yes"/>
      <point x="1085" y="195"/>
      <point x="916" y="33"/>
      <point x="658" y="33" type="curve" smooth="yes"/>
      <point x="400" y="33"/>
      <point x="230" y="195"/>
      <point x="230" y="455" type="curve" smooth="yes"/>
      <point x="230" y="1404" type="line"/>
      <point x="178" y="1404" type="line"/>
      <point x="178" y="449" type="line" smooth="yes"/>
      <point x="179" y="157"/>
      <point x="364" y="-19"/>
      <point x="658" y="-19" type="curve" smooth="yes"/>
      <point x="952" y="-19"/>
      <point x="1137" y="156"/>
      <point x="1137" y="453" type="curve" smooth="yes"/>
      <point x="1137" y="1404" type="line"/>
    </contour>
  </outline>
</glyph>
<glyph name="V" format="2">
  <advance width="1179"/>
  <unicode hex="0056"/>
  <note>
uni0056
</note>
  <outline>
    <contour>
      <point x="91" y="1404" type="line"/>
      <point x="34" y="1404" type="line"/>
      <point x="558" y="0" type="line"/>
      <point x="622" y="0" type="line"/>
      <point x="1146" y="1404" type="line"/>
      <point x="1089" y="1404" type="line"/>
      <point x="590" y="52" type="line"/>
    </contour>
  </outline>
</glyph>
<glyph name="Y" format="2">
  <advance width="1179"/>
  <unicode hex="0059"/>
  <note>
uni0059
</note>
  <outline>
    <contour>
      <point x="101" y="1404" type="line"/>
      <point x="32" y="1404" type="line"/>
      <point x="561" y="533" type="line"/>
      <point x="561" y="0" type="line"/>
      <point x="613" y="0" type="line"/>
      <point x="613" y="533" type="line"/>
      <point x="1142" y="1404" type="line"/>
      <point x="1079" y="1404" type="line"/>
      <point x="587" y="580" type="line"/>
    </contour>
  </outline>
</glyph>
<glyph name="bracketleft" format="2">
  <advance width="678"/>
  <unicode hex="005B"/>
  <outline>
    <contour>
      <point x="578" y="1839" type="line"/>
      <point x="100" y="1839" type="line"/>
      <point x="100" y="-227" type="line"/>
      <point x="578" y="-227" type="line"/>
      <point x="578" y="-197" type="line"/>
      <point x="157" y="-163" type="line"/>
      <point x="157" y="1791" type="line"/>
      <point x="578" y="1813" type="line"/>
    </contour>
  </outline>
</glyph>
<glyph name="a" format="2">
  <advance width="1043"/>
  <unicode hex="0061"/>
  <note>
uni0061
</note>
  <outline>
    <contour>
      <point x="900" y="0" type="line"/>
      <point x="900" y="9" type="line"/>
      <point x="882" y="50"/>
      <point x="873" y="128"/>
      <point x="873" y="242" type="curve" smooth="yes"/>
      <point x="873" y="740" type="line" smooth="yes"/>
      <point x="869" y="945"/>
      <point x="728" y="1062"/>
      <point x="503" y="1062" type="curve" smooth="yes"/>
      <point x="287" y="1062"/>
      <point x="117" y="927"/>
      <point x="117" y="758" type="curve"/>
      <point x="169" y="756" type="line"/>
      <point x="169" y="900"/>
      <point x="312" y="1010"/>
      <point x="503" y="1010" type="curve" smooth="yes"/>
      <point x="707" y="1010"/>
      <point x="821" y="909"/>
      <point x="821" y="735" type="curve" smooth="yes"/>
      <point x="821" y="582" type="line"/>
      <point x="563" y="582" type="line" smooth="yes"/>
      <point x="277" y="580"/>
      <point x="89" y="456"/>
      <point x="89" y="264" type="curve" smooth="yes"/>
      <point x="89" y="96"/>
      <point x="217" y="-19"/>
      <point x="410" y="-19" type="curve" smooth="yes"/>
      <point x="590" y="-19"/>
      <point x="739" y="57"/>
      <point x="821" y="191" type="curve"/>
      <point x="821" y="108"/>
      <point x="827" y="44"/>
      <point x="840" y="0" type="curve"/>
    </contour>
    <contour>
      <point x="410" y="32" type="curve" smooth="yes"/>
      <point x="255" y="32"/>
      <point x="141" y="133"/>
      <point x="141" y="260" type="curve" smooth="yes"/>
      <point x="141" y="458"/>
      <point x="375" y="529"/>
      <point x="580" y="529" type="curve" smooth="yes"/>
      <point x="821" y="529" type="line"/>
      <point x="821" y="281" type="line"/>
      <point x="750" y="123"/>
      <point x="606" y="32"/>
    </contour>
  </outline>
</glyph>
<glyph name="e" format="2">
  <advance width="995"/>
  <unicode hex="0065"/>
  <note>
uni0065
</note>
  <outline>
    <contour>
      <point x="541" y="-19" type="curve" smooth="yes"/>
      <point x="694" y="-19"/>
      <point x="810" y="37"/>
      <point x="887" y="149" type="curve"/>
      <point x="851" y="175" type="line"/>
      <point x="775" y="78"/>
      <point x="681" y="32"/>
      <point x="541" y="32" type="curve" smooth="yes"/>
      <point x="368" y="32"/>
      <point x="136" y="135"/>
      <point x="136" y="556" type="curve"/>
      <point x="918" y="556" type="line"/>
      <point x="918" y="611" type="line" smooth="yes"/>
      <point x="918" y="881"/>
      <point x="755" y="1062"/>
      <point x="522" y="1062" type="curve" smooth="yes"/>
      <point x="253" y="1062"/>
      <point x="84" y="811"/>
      <point x="84" y="542" type="curve" smooth="yes"/>
      <point x="84" y="498" type="line" smooth="yes"/>
      <point x="84" y="217"/>
      <point x="273" y="-19"/>
    </contour>
    <contour>
      <point x="522" y="1010" type="curve" smooth="yes"/>
      <point x="735" y="1010"/>
      <point x="866" y="824"/>
      <point x="866" y="621" type="curve" smooth="yes"/>
      <point x="866" y="608" type="line"/>
      <point x="139" y="608" type="line"/>
      <point x="164" y="842"/>
      <point x="319" y="1010"/>
    </contour>
  </outline>
</glyph>
<glyph name="f" format="2">
  <advance width="623"/>
  <unicode hex="0066"/>
  <note>
uni0066
</note>
  <outline>
    <contour>
      <point x="298" y="0" type="line"/>
      <point x="298" y="990" type="line"/>
      <point x="573" y="990" type="line"/>
      <point x="573" y="1043" type="line"/>
      <point x="298" y="1043" type="line"/>
      <point x="298" y="1192" type="line" smooth="yes"/>
      <point x="298" y="1356"/>
      <point x="382" y="1449"/>
      <point x="519" y="1449" type="curve" smooth="yes"/>
      <point x="562" y="1449"/>
      <point x="601" y="1444"/>
      <point x="634" y="1434" type="curve"/>
      <point x="642" y="1485" type="line"/>
      <point x="607" y="1495"/>
      <point x="566" y="1501"/>
      <point x="518" y="1501" type="curve" smooth="yes"/>
      <point x="347" y="1501"/>
      <point x="247" y="1388"/>
      <point x="245" y="1195" type="curve" smooth="yes"/>
      <point x="245" y="1043" type="line"/>
      <point x="64" y="1043" type="line"/>
      <point x="64" y="990" type="line"/>
      <point x="245" y="990" type="line"/>
      <point x="245" y="0" type="line"/>
    </contour>
  </outline>
</glyph>
<glyph name="h" format="2">
  <advance width="1081"/>
  <unicode hex="0068"/>
  <note>
uni0068
</note>
  <outline>
    <contour>
      <point x="218" y="1481" type="line"/>
      <point x="166" y="1481" type="line"/>
      <point x="166" y="0" type="line"/>
      <point x="218" y="0" type="line"/>
      <point x="218" y="668" type="line"/>
      <point x="264" y="870"/>
      <point x="405" y="1011"/>
      <point x="585" y="1011" type="curve" smooth="yes"/>
      <point x="781" y="1011"/>
      <point x="866" y="906"/>
      <point x="868" y="683" type="curve" smooth="yes"/>
      <point x="868" y="0" type="line"/>
      <point x="920" y="0" type="line"/>
      <point x="920" y="681" type="line" smooth="yes"/>
      <point x="919" y="936"/>
      <point x="812" y="1062"/>
      <point x="588" y="1062" type="curve" smooth="yes"/>
      <point x="428" y="1062"/>
      <point x="286" y="962"/>
      <point x="218" y="800" type="curve"/>
    </contour>
  </outline>
</glyph>
<glyph name="i" format="2">
  <advance width="406"/>
  <unicode hex="0069"/>
  <note>
uni0069
</note>
  <outline>
    <contour>
      <point x="230" y="1043" type="line"/>
      <point x="178" y="1043" type="line"/>
      <point x="178" y="0" type="line"/>
      <point x="230" y="0" type="line"/>
    </contour>
    <contour>
      <point x="151" y="1369" type="curve" smooth="yes"/>
      <point x="151" y="1339"/>
      <point x="174" y="1316"/>
      <point x="204" y="1316" type="curve" smooth="yes"/>
      <point x="234" y="1316"/>
      <point x="258" y="1339"/>
      <point x="258" y="1369" type="curve" smooth="yes"/>
      <point x="258" y="1398"/>
      <point x="234" y="1423"/>
      <point x="204" y="1423" type="curve" smooth="yes"/>
      <point x="174" y="1423"/>
      <point x="151" y="1398"/>
    </contour>
  </outline>
</glyph>
<glyph name="p" format="2">
  <advance width="1081"/>
  <unicode hex="0070"/>
  <note>
uni0070
</note>
  <outline>
    <contour>
      <point x="963" y="528" type="curve" smooth="yes"/>
      <point x="963" y="866"/>
      <point x="814" y="1062"/>
      <point x="570" y="1062" type="curve" smooth="yes"/>
      <point x="414" y="1062"/>
      <point x="288" y="989"/>
      <point x="216" y="857" type="curve"/>
      <point x="216" y="1043" type="line"/>
      <point x="164" y="1043" type="line"/>
      <point x="164" y="-401" type="line"/>
      <point x="216" y="-401" type="line"/>
      <point x="216" y="162" type="line"/>
      <point x="286" y="49"/>
      <point x="414" y="-19"/>
      <point x="572" y="-19" type="curve" smooth="yes"/>
      <point x="808" y="-19"/>
      <point x="963" y="173"/>
    </contour>
    <contour>
      <point x="910" y="532" type="curve" smooth="yes"/>
      <point x="910" y="206"/>
      <point x="786" y="33"/>
      <point x="573" y="33" type="curve" smooth="yes"/>
      <point x="397" y="33"/>
      <point x="270" y="115"/>
      <point x="216" y="259" type="curve"/>
      <point x="216" y="747" type="line"/>
      <point x="270" y="917"/>
      <point x="396" y="1010"/>
      <point x="571" y="1010" type="curve" smooth="yes"/>
      <point x="786" y="1010"/>
      <point x="910" y="832"/>
    </contour>
  </outline>
</glyph>
<glyph name="s" format="2">
  <advance width="982"/>
  <unicode hex="0073"/>
  <note>
uni0073
</note>
  <outline>
    <contour>
      <point x="809" y="255" type="curve" smooth="yes"/>
      <point x="809" y="132"/>
      <point x="681" y="33"/>
      <point x="495" y="33" type="curve" smooth="yes"/>
      <point x="292" y="33"/>
      <point x="167" y="119"/>
      <point x="157" y="265" type="curve"/>
      <point x="104" y="265" type="line"/>
      <point x="104" y="98"/>
      <point x="261" y="-19"/>
      <point x="495" y="-19" type="curve" smooth="yes"/>
      <point x="713" y="-19"/>
      <point x="861" y="90"/>
      <point x="861" y="254" type="curve" smooth="yes"/>
      <point x="861" y="453"/>
      <point x="696" y="514"/>
      <point x="514" y="556" type="curve" smooth="yes"/>
      <point x="352" y="594"/>
      <point x="190" y="635"/>
      <point x="190" y="801" type="curve" smooth="yes"/>
      <point x="190" y="921"/>
      <point x="305" y="1010"/>
      <point x="487" y="1010" type="curve" smooth="yes"/>
      <point x="677" y="1010"/>
      <point x="807" y="905"/>
      <point x="807" y="764" type="curve"/>
      <point x="860" y="764" type="line"/>
      <point x="860" y="947"/>
      <point x="712" y="1062"/>
      <point x="487" y="1062" type="curve" smooth="yes"/>
      <point x="280" y="1062"/>
      <point x="138" y="952"/>
      <point x="138" y="799" type="curve" smooth="yes"/>
      <point x="138" y="647"/>
      <point x="226" y="569"/>
      <point x="485" y="514" type="curve" smooth="yes"/>
      <point x="701" y="468"/>
      <point x="809" y="382"/>
    </contour>
  </outline>
</glyph>
<glyph name="t" format="2">
  <advance width="625"/>
  <unicode hex="0074"/>
  <note>
uni0074
</note>
  <outline>
    <contour>
      <point x="230" y="1325" type="line"/>
      <point x="230" y="1043" type="line"/>
      <point x="37" y="1043" type="line"/>
      <point x="37" y="990" type="line"/>
      <point x="230" y="990" type="line"/>
      <point x="230" y="243" type="line" smooth="yes"/>
      <point x="231" y="62"/>
      <point x="291" y="-19"/>
      <point x="443" y="-19" type="curve" smooth="yes"/>
      <point x="495" y="-19"/>
      <point x="531" y="-15"/>
      <point x="552" y="-8" type="curve"/>
      <point x="543" y="41" type="line"/>
      <point x="503" y="36"/>
      <point x="469" y="33"/>
      <point x="440" y="33" type="curve" smooth="yes"/>
      <point x="327" y="33"/>
      <point x="283" y="102"/>
      <point x="283" y="250" type="curve" smooth="yes"/>
      <point x="283" y="990" type="line"/>
      <point x="520" y="990" type="line"/>
      <point x="520" y="1043" type="line"/>
      <point x="283" y="1043" type="line"/>
      <point x="283" y="1325" type="line"/>
    </contour>
  </outline>
</glyph>
<glyph name="v" format="2">
  <advance width="943"/>
  <unicode hex="0076"/>
  <note>
uni0076
</note>
  <outline>
    <contour>
      <point x="97" y="1043" type="line"/>
      <point x="41" y="1043" type="line"/>
      <point x="446" y="0" type="line"/>
      <point x="497" y="0" type="line"/>
      <point x="903" y="1043" type="line"/>
      <point x="847" y="1043" type="line"/>
      <point x="472" y="83" type="line"/>
    </contour>
  </outline>
</glyph>
<glyph name="w" format="2">
  <advance width="1494"/>
  <unicode hex="0077"/>
  <note>
uni0077
</note>
  <outline>
    <contour>
      <point x="768" y="1043" type="line"/>
      <point x="715" y="1043" type="line"/>
      <point x="410" y="77" type="line"/>
      <point x="140" y="1043" type="line"/>
      <point x="80" y="1043" type="line"/>
      <point x="383" y="0" type="line"/>
      <point x="435" y="0" type="line"/>
      <point x="741" y="971" type="line"/>
      <point x="1048" y="0" type="line"/>
      <point x="1100" y="0" type="line"/>
      <point x="1403" y="1043" type="line"/>
      <point x="1343" y="1043" type="line"/>
      <point x="1072" y="77" type="line"/>
    </contour>
  </outline>
</glyph>
<glyph name="asciitilde" format="2">
  <advance width="1176"/>
  <unicode hex="007E"/>
  <note>
uni007E
</note>
  <outline>
    <contour>
      <point x="1014" y="630" type="line"/>
      <point x="1014" y="450"/>
      <point x="947" y="345"/>
      <point x="828" y="345" type="curve" smooth="yes"/>
      <point x="763" y="345"/>
      <point x="720" y="364"/>
      <point x="606" y="492" type="curve" smooth="yes"/>
      <point x="494" y="620"/>
      <point x="432" y="653"/>
      <point x="349" y="653" type="curve" smooth="yes"/>
      <point x="202" y="653"/>
      <point x="114" y="519"/>
      <point x="114" y="307" type="curve"/>
      <point x="162" y="307" type="line"/>
      <point x="162" y="497"/>
      <point x="232" y="593"/>
      <point x="349" y="593" type="curve" smooth="yes"/>
      <point x="419" y="593"/>
      <point x="461" y="574"/>
      <point x="575" y="445" type="curve" smooth="yes"/>
      <point x="688" y="317"/>
      <point x="745" y="287"/>
      <point x="828" y="287" type="curve" smooth="yes"/>
      <point x="971" y="287"/>
      <point x="1064" y="425"/>
      <point x="1064" y="629" type="curve"/>
    </contour>
  </outline>
</glyph>
<glyph name="yen" format="2">
  <advance width="1163"/>
  <unicode hex="00A5"/>
  <note>
uni00A5
</note>
  <outline>
    <contour>
      <point x="168" y="1281" type="line"/>
      <point x="108" y="1281" type="line"/>
      <point x="530" y="595" type="line"/>
      <point x="158" y="595" type="line"/>
      <point x="158" y="546" type="line"/>
      <point x="555" y="546" type="line"/>
      <point x="555" y="335" type="line"/>
      <point x="158" y="335" type="line"/>
      <point x="158" y="287" type="line"/>
      <point x="555" y="287" type="line"/>
      <point x="555" y="0" type="line"/>
      <point x="608" y="0" type="line"/>
      <point x="608" y="287" type="line"/>
      <point x="975" y="287" type="line"/>
      <point x="975" y="335" type="line"/>
      <point x="608" y="335" type="line"/>
      <point x="608" y="546" type="line"/>
      <point x="975" y="546" type="line"/>
      <point x="975" y="595" type="line"/>
      <point x="632" y="595" type="line"/>
      <point x="1054" y="1281" type="line"/>
      <point x="994" y="1281" type="line"/>
      <point x="580" y="604" type="line"/>
    </contour>
  </outline>
</glyph>
<glyph name="ordfeminine" format="2">
  <advance width="866"/>
  <unicode hex="00AA"/>
  <note>
uni00AA
</note>
  <outline>
    <contour>
      <point x="712" y="680" type="line"/>
      <point x="695" y="736"/>
      <point x="687" y="793"/>
      <point x="687" y="852" type="curve" smooth="yes"/>
      <point x="687" y="1157" type="line" smooth="yes"/>
      <point x="687" y="1326"/>
      <point x="591" y="1423"/>
      <point x="442" y="1423" type="curve" smooth="yes"/>
      <point x="276" y="1423"/>
      <point x="161" y="1329"/>
      <point x="161" y="1198" type="curve"/>
      <point x="213" y="1198" type="line"/>
      <point x="213" y="1315"/>
      <point x="302" y="1371"/>
      <point x="442" y="1371" type="curve" smooth="yes"/>
      <point x="570" y="1371"/>
      <point x="634" y="1291"/>
      <point x="634" y="1158" type="curve" smooth="yes"/>
      <point x="634" y="1091" type="line"/>
      <point x="470" y="1091" type="line" smooth="yes"/>
      <point x="274" y="1091"/>
      <point x="162" y="1008"/>
      <point x="162" y="868" type="curve" smooth="yes"/>
      <point x="162" y="745"/>
      <point x="247" y="666"/>
      <point x="402" y="666" type="curve" smooth="yes"/>
      <point x="493" y="666"/>
      <point x="584" y="716"/>
      <point x="634" y="793" type="curve"/>
      <point x="637" y="752"/>
      <point x="644" y="714"/>
      <point x="656" y="680" type="curve"/>
    </contour>
    <contour>
      <point x="403" y="719" type="curve" smooth="yes"/>
      <point x="277" y="719"/>
      <point x="214" y="770"/>
      <point x="214" y="871" type="curve" smooth="yes"/>
      <point x="214" y="983"/>
      <point x="300" y="1039"/>
      <point x="473" y="1039" type="curve" smooth="yes"/>
      <point x="634" y="1039" type="line"/>
      <point x="634" y="867" type="line"/>
      <point x="608" y="791"/>
      <point x="493" y="719"/>
    </contour>
  </outline>
</glyph>
<glyph name="degree" format="2">
  <advance width="635"/>
  <unicode hex="00B0"/>
  <note>
uni00B0
</note>
  <outline>
    <contour>
      <point x="61" y="1339" type="curve" smooth="yes"/>
      <point x="61" y="1198"/>
      <point x="176" y="1083"/>
      <point x="319" y="1083" type="curve" smooth="yes"/>
      <point x="461" y="1083"/>
      <point x="573" y="1198"/>
      <point x="573" y="1339" type="curve" smooth="yes"/>
      <point x="573" y="1485"/>
      <point x="459" y="1599"/>
      <point x="319" y="1599" type="curve" smooth="yes"/>
      <point x="180" y="1599"/>
      <point x="61" y="1485"/>
    </contour>
    <contour>
      <point x="319" y="1129" type="curve" smooth="yes"/>
      <point x="204" y="1129"/>
      <point x="111" y="1218"/>
      <point x="111" y="1337" type="curve" smooth="yes"/>
      <point x="111" y="1458"/>
      <point x="204" y="1554"/>
      <point x="319" y="1554" type="curve" smooth="yes"/>
      <point x="440" y="1554"/>
      <point x="526" y="1458"/>
      <point x="526" y="1337" type="curve" smooth="yes"/>
      <point x="526" y="1222"/>
      <point x="440" y="1129"/>
    </contour>
  </outline>
</glyph>
<glyph name="plusminus" format="2">
  <advance width="1083"/>
  <unicode hex="00B1"/>
  <note>
uni002B
</note>
  <outline>
    <contour>
      <point x="580" y="1315" type="line"/>
      <point x="528" y="1315" type="line"/>
      <point x="528" y="924" type="line"/>
      <point x="100" y="924" type="line"/>
      <point x="100" y="872" type="line"/>
      <point x="528" y="872" type="line"/>
      <point x="528" y="504" type="line"/>
      <point x="580" y="504" type="line"/>
      <point x="580" y="872" type="line"/>
      <point x="984" y="872" type="line"/>
      <point x="984" y="924" type="line"/>
      <point x="580" y="924" type="line"/>
    </contour>
    <contour>
      <point x="977" y="239" type="line"/>
      <point x="102" y="239" type="line"/>
      <point x="103" y="186" type="line"/>
      <point x="978" y="186" type="line"/>
    </contour>
  </outline>
</glyph>
<glyph name="paragraph" format="2">
  <advance width="872"/>
  <unicode hex="00B6"/>
  <note>
uni00B6
</note>
  <outline>
    <contour>
      <point x="723" y="0" type="line"/>
      <point x="723" y="1279" type="line"/>
      <point x="552" y="1279" type="line" smooth="yes"/>
      <point x="259" y="1279"/>
      <point x="76" y="1117"/>
      <point x="76" y="868" type="curve" smooth="yes"/>
      <point x="76" y="621"/>
      <point x="256" y="457"/>
      <point x="548" y="457" type="curve" smooth="yes"/>
      <point x="671" y="457" type="line"/>
      <point x="671" y="0" type="line"/>
    </contour>
  </outline>
</glyph>
<glyph name="ordmasculine" format="2">
  <advance width="881"/>
  <unicode hex="00BA"/>
  <note>
uni00BA
</note>
  <outline>
    <contour>
      <point x="143" y="992" type="line" smooth="yes"/>
      <point x="143" y="790"/>
      <point x="262" y="665"/>
      <point x="438" y="665" type="curve" smooth="yes"/>
      <point x="613" y="665"/>
      <point x="730" y="793"/>
      <point x="730" y="987" type="curve" smooth="yes"/>
      <point x="730" y="1095" type="line" smooth="yes"/>
      <point x="730" y="1296"/>
      <point x="612" y="1423"/>
      <point x="436" y="1423" type="curve" smooth="yes"/>
      <point x="260" y="1423"/>
      <point x="143" y="1293"/>
      <point x="143" y="1100" type="curve" smooth="yes"/>
    </contour>
    <contour>
      <point x="195" y="1094" type="line" smooth="yes"/>
      <point x="195" y="1268"/>
      <point x="290" y="1371"/>
      <point x="436" y="1371" type="curve" smooth="yes"/>
      <point x="584" y="1371"/>
      <point x="679" y="1264"/>
      <point x="679" y="1100" type="curve" smooth="yes"/>
      <point x="679" y="991" type="line" smooth="yes"/>
      <point x="679" y="823"/>
      <point x="587" y="717"/>
      <point x="438" y="717" type="curve" smooth="yes"/>
      <point x="285" y="717"/>
      <point x="195" y="819"/>
      <point x="195" y="987" type="curve" smooth="yes"/>
    </contour>
  </outline>
</glyph>
<glyph name="Agrave" format="2">
  <advance width="1179"/>
  <unicode hex="00C0"/>
  <note>
uni00C0
</note>
  <outline>
    <contour>
      <point x="1089" y="0" type="line"/>
      <point x="1146" y="0" type="line"/>
      <point x="621" y="1404" type="line"/>
      <point x="557" y="1404" type="line"/>
      <point x="32" y="0" type="line"/>
      <point x="89" y="0" type="line"/>
      <point x="245" y="419" type="line"/>
      <point x="932" y="419" type="line"/>
    </contour>
    <contour>
      <point x="589" y="1341" type="line"/>
      <point x="913" y="471" type="line"/>
      <point x="264" y="471" type="line"/>
    </contour>
    <contour>
      <point x="447" y="1800" type="line"/>
      <point x="383" y="1800" type="line"/>
      <point x="571" y="1543" type="line"/>
      <point x="628" y="1543" type="line"/>
    </contour>
  </outline>
</glyph>
<glyph name="Eacute" format="2">
  <advance width="1124"/>
  <unicode hex="00C9"/>
  <note>
uni00C9
</note>
  <outline>
    <contour>
      <point x="949" y="748" type="line"/>
      <point x="245" y="748" type="line"/>
      <point x="245" y="1352" type="line"/>
      <point x="1047" y="1352" type="line"/>
      <point x="1047" y="1404" type="line"/>
      <point x="193" y="1404" type="line"/>
      <point x="193" y="0" type="line"/>
      <point x="1047" y="0" type="line"/>
      <point x="1047" y="52" type="line"/>
      <point x="245" y="52" type="line"/>
      <point x="245" y="696" type="line"/>
      <point x="949" y="696" type="line"/>
    </contour>
    <contour>
      <point x="563" y="1543" type="line"/>
      <point x="621" y="1543" type="line"/>
      <point x="808" y="1800" type="line"/>
      <point x="745" y="1800" type="line"/>
    </contour>
  </outline>
</glyph>
<glyph name="Ecircumflex" format="2">
  <advance width="1124"/>
  <unicode hex="00CA"/>
  <note>
uni00CA
</note>
  <outline>
    <contour>
      <point x="949" y="748" type="line"/>
      <point x="245" y="748" type="line"/>
      <point x="245" y="1352" type="line"/>
      <point x="1047" y="1352" type="line"/>
      <point x="1047" y="1404" type="line"/>
      <point x="193" y="1404" type="line"/>
      <point x="193" y="0" type="line"/>
      <point x="1047" y="0" type="line"/>
      <point x="1047" y="52" type="line"/>
      <point x="245" y="52" type="line"/>
      <point x="245" y="696" type="line"/>
      <point x="949" y="696" type="line"/>
    </contour>
    <contour>
      <point x="617" y="1781" type="line"/>
      <point x="579" y="1781" type="line"/>
      <point x="357" y="1551" type="line"/>
      <point x="357" y="1537" type="line"/>
      <point x="419" y="1537" type="line"/>
      <point x="597" y="1726" type="line"/>
      <point x="777" y="1537" type="line"/>
      <point x="843" y="1537" type="line"/>
      <point x="843" y="1547" type="line"/>
    </contour>
  </outline>
</glyph>
<glyph name="Edieresis" format="2">
  <advance width="1124"/>
  <unicode hex="00CB"/>
  <note>
uni00CB
</note>
  <outline>
    <contour>
      <point x="949" y="748" type="line"/>
      <point x="245" y="748" type="line"/>
      <point x="245" y="1352" type="line"/>
      <point x="1047" y="1352" type="line"/>
      <point x="1047" y="1404" type="line"/>
      <point x="193" y="1404" type="line"/>
      <point x="193" y="0" type="line"/>
      <point x="1047" y="0" type="line"/>
      <point x="1047" y="52" type="line"/>
      <point x="245" y="52" type="line"/>
      <point x="245" y="696" type="line"/>
      <point x="949" y="696" type="line"/>
    </contour>
    <contour>
      <point x="332" y="1689" type="curve" smooth="yes"/>
      <point x="332" y="1659"/>
      <point x="356" y="1636"/>
      <point x="385" y="1636" type="curve" smooth="yes"/>
      <point x="415" y="1636"/>
      <point x="439" y="1659"/>
      <point x="439" y="1689" type="curve" smooth="yes"/>
      <point x="439" y="1718"/>
      <point x="415" y="1743"/>
      <point x="385" y="1743" type="curve" smooth="yes"/>
      <point x="356" y="1743"/>
      <point x="332" y="1718"/>
    </contour>
    <contour>
      <point x="761" y="1689" type="curve" smooth="yes"/>
      <point x="761" y="1659"/>
      <point x="784" y="1636"/>
      <point x="814" y="1636" type="curve" smooth="yes"/>
      <point x="844" y="1636"/>
      <point x="868" y="1659"/>
      <point x="868" y="1689" type="curve" smooth="yes"/>
      <point x="868" y="1718"/>
      <point x="844" y="1743"/>
      <point x="814" y="1743" type="curve" smooth="yes"/>
      <point x="784" y="1743"/>
      <point x="761" y="1718"/>
    </contour>
  </outline>
</glyph>
<glyph name="Iacute" format="2">
  <advance width="514"/>
  <unicode hex="00CD"/>
  <note>
uni00CD
</note>
  <outline>
    <contour>
      <point x="280" y="1404" type="line"/>
      <point x="228" y="1404" type="line"/>
      <point x="228" y="0" type="line"/>
      <point x="280" y="0" type="line"/>
    </contour>
    <contour>
      <point x="220" y="1543" type="line"/>
      <point x="278" y="1543" type="line"/>
      <point x="465" y="1800" type="line"/>
      <point x="402" y="1800" type="line"/>
    </contour>
  </outline>
</glyph>
<glyph name="Icircumflex" format="2">
  <advance width="515"/>
  <unicode hex="00CE"/>
  <note>
uni00CE
</note>
  <outline>
    <contour>
      <point x="283" y="1404" type="line"/>
      <point x="231" y="1404" type="line"/>
      <point x="231" y="0" type="line"/>
      <point x="283" y="0" type="line"/>
    </contour>
    <contour>
      <point x="278" y="1781" type="line"/>
      <point x="240" y="1781" type="line"/>
      <point x="18" y="1551" type="line"/>
      <point x="18" y="1537" type="line"/>
      <point x="80" y="1537" type="line"/>
      <point x="258" y="1726" type="line"/>
      <point x="438" y="1537" type="line"/>
      <point x="504" y="1537" type="line"/>
      <point x="504" y="1547" type="line"/>
    </contour>
  </outline>
</glyph>
<glyph name="Ograve" format="2">
  <advance width="1314"/>
  <unicode hex="00D2"/>
  <note>
uni00D2
</note>
  <outline>
    <contour>
      <point x="1186" y="807" type="line" smooth="yes"/>
      <point x="1186" y="1152"/>
      <point x="993" y="1423"/>
      <point x="656" y="1423" type="curve" smooth="yes"/>
      <point x="311" y="1423"/>
      <point x="128" y="1144"/>
      <point x="128" y="807" type="curve" smooth="yes"/>
      <point x="128" y="604" type="line" smooth="yes"/>
      <point x="128" y="223"/>
      <point x="342" y="-19"/>
      <point x="658" y="-19" type="curve" smooth="yes"/>
      <point x="1001" y="-19"/>
      <point x="1186" y="254"/>
      <point x="1186" y="597" type="curve" smooth="yes"/>
    </contour>
    <contour>
      <point x="1134" y="604" type="line" smooth="yes"/>
      <point x="1134" y="251"/>
      <point x="951" y="33"/>
      <point x="658" y="33" type="curve" smooth="yes"/>
      <point x="344" y="33"/>
      <point x="181" y="281"/>
      <point x="181" y="597" type="curve" smooth="yes"/>
      <point x="181" y="802" type="line" smooth="yes"/>
      <point x="181" y="1153"/>
      <point x="367" y="1371"/>
      <point x="656" y="1371" type="curve" smooth="yes"/>
      <point x="949" y="1371"/>
      <point x="1134" y="1148"/>
      <point x="1134" y="809" type="curve" smooth="yes"/>
    </contour>
    <contour>
      <point x="508" y="1821" type="line"/>
      <point x="444" y="1821" type="line"/>
      <point x="632" y="1564" type="line"/>
      <point x="689" y="1564" type="line"/>
    </contour>
  </outline>
</glyph>
<glyph name="Ocircumflex" format="2">
  <advance width="1314"/>
  <unicode hex="00D4"/>
  <note>
uni00D4
</note>
  <outline>
    <contour>
      <point x="1186" y="807" type="line" smooth="yes"/>
      <point x="1186" y="1152"/>
      <point x="993" y="1423"/>
      <point x="656" y="1423" type="curve" smooth="yes"/>
      <point x="311" y="1423"/>
      <point x="128" y="1144"/>
      <point x="128" y="807" type="curve" smooth="yes"/>
      <point x="128" y="604" type="line" smooth="yes"/>
      <point x="128" y="223"/>
      <point x="342" y="-19"/>
      <point x="658" y="-19" type="curve" smooth="yes"/>
      <point x="1001" y="-19"/>
      <point x="1186" y="254"/>
      <point x="1186" y="597" type="curve" smooth="yes"/>
    </contour>
    <contour>
      <point x="1134" y="604" type="line" smooth="yes"/>
      <point x="1134" y="251"/>
      <point x="951" y="33"/>
      <point x="658" y="33" type="curve" smooth="yes"/>
      <point x="344" y="33"/>
      <point x="181" y="281"/>
      <point x="181" y="597" type="curve" smooth="yes"/>
      <point x="181" y="802" type="line" smooth="yes"/>
      <point x="181" y="1153"/>
      <point x="367" y="1371"/>
      <point x="656" y="1371" type="curve" smooth="yes"/>
      <point x="949" y="1371"/>
      <point x="1134" y="1148"/>
      <point x="1134" y="809" type="curve" smooth="yes"/>
    </contour>
    <contour>
      <point x="670" y="1802" type="line"/>
      <point x="632" y="1802" type="line"/>
      <point x="410" y="1572" type="line"/>
      <point x="410" y="1558" type="line"/>
      <point x="472" y="1558" type="line"/>
      <point x="650" y="1747" type="line"/>
      <point x="830" y="1558" type="line"/>
      <point x="896" y="1558" type="line"/>
      <point x="896" y="1568" type="line"/>
    </contour>
  </outline>
</glyph>
<glyph name="Otilde" format="2">
  <advance width="1314"/>
  <unicode hex="00D5"/>
  <note>
uni00D5
</note>
  <outline>
    <contour>
      <point x="1186" y="807" type="line" smooth="yes"/>
      <point x="1186" y="1152"/>
      <point x="993" y="1423"/>
      <point x="656" y="1423" type="curve" smooth="yes"/>
      <point x="311" y="1423"/>
      <point x="128" y="1144"/>
      <point x="128" y="807" type="curve" smooth="yes"/>
      <point x="128" y="604" type="line" smooth="yes"/>
      <point x="128" y="223"/>
      <point x="342" y="-19"/>
      <point x="658" y="-19" type="curve" smooth="yes"/>
      <point x="1001" y="-19"/>
      <point x="1186" y="254"/>
      <point x="1186" y="597" type="curve" smooth="yes"/>
    </contour>
    <contour>
      <point x="1134" y="604" type="line" smooth="yes"/>
      <point x="1134" y="251"/>
      <point x="951" y="33"/>
      <point x="658" y="33" type="curve" smooth="yes"/>
      <point x="344" y="33"/>
      <point x="181" y="281"/>
      <point x="181" y="597" type="curve" smooth="yes"/>
      <point x="181" y="802" type="line" smooth="yes"/>
      <point x="181" y="1153"/>
      <point x="367" y="1371"/>
      <point x="656" y="1371" type="curve" smooth="yes"/>
      <point x="949" y="1371"/>
      <point x="1134" y="1148"/>
      <point x="1134" y="809" type="curve" smooth="yes"/>
    </contour>
    <contour>
      <point x="914" y="1774" type="line"/>
      <point x="914" y="1698"/>
      <point x="867" y="1648"/>
      <point x="798" y="1648" type="curve" smooth="yes"/>
      <point x="761" y="1648"/>
      <point x="718" y="1668"/>
      <point x="669" y="1707" type="curve" smooth="yes"/>
      <point x="621" y="1747"/>
      <point x="571" y="1767"/>
      <point x="521" y="1767" type="curve" smooth="yes"/>
      <point x="423" y="1767"/>
      <point x="351" y="1698"/>
      <point x="351" y="1595" type="curve"/>
      <point x="404" y="1595" type="line"/>
      <point x="404" y="1668"/>
      <point x="449" y="1715"/>
      <point x="521" y="1715" type="curve" smooth="yes"/>
      <point x="561" y="1715"/>
      <point x="604" y="1695"/>
      <point x="650" y="1655" type="curve" smooth="yes"/>
      <point x="697" y="1615"/>
      <point x="746" y="1595"/>
      <point x="798" y="1595" type="curve" smooth="yes"/>
      <point x="894" y="1595"/>
      <point x="967" y="1669"/>
      <point x="967" y="1774" type="curve"/>
    </contour>
  </outline>
</glyph>
<glyph name="Oslash" format="2">
  <advance width="1315"/>
  <unicode hex="00D8"/>
  <note>
uni00D8
</note>
  <outline>
    <contour>
      <point x="1186" y="809" type="line" smooth="yes"/>
      <point x="1186" y="978"/>
      <point x="1143" y="1119"/>
      <point x="1060" y="1229" type="curve"/>
      <point x="1195" y="1441" type="line"/>
      <point x="1131" y="1441" type="line"/>
      <point x="1024" y="1272" type="line"/>
      <point x="927" y="1372"/>
      <point x="804" y="1423"/>
      <point x="656" y="1423" type="curve" smooth="yes"/>
      <point x="311" y="1423"/>
      <point x="128" y="1144"/>
      <point x="128" y="807" type="curve" smooth="yes"/>
      <point x="128" y="606" type="line" smooth="yes"/>
      <point x="128" y="399"/>
      <point x="184" y="238"/>
      <point x="295" y="125" type="curve"/>
      <point x="170" y="-72" type="line"/>
      <point x="234" y="-72" type="line"/>
      <point x="336" y="89" type="line"/>
      <point x="425" y="17"/>
      <point x="533" y="-19"/>
      <point x="658" y="-19" type="curve" smooth="yes"/>
      <point x="1001" y="-19"/>
      <point x="1186" y="254"/>
      <point x="1186" y="597" type="curve" smooth="yes"/>
    </contour>
    <contour>
      <point x="1134" y="604" type="line" smooth="yes"/>
      <point x="1134" y="251"/>
      <point x="951" y="33"/>
      <point x="658" y="33" type="curve" smooth="yes"/>
      <point x="542" y="33"/>
      <point x="444" y="66"/>
      <point x="364" y="132" type="curve"/>
      <point x="1031" y="1183" type="line"/>
      <point x="1100" y="1086"/>
      <point x="1134" y="961"/>
      <point x="1134" y="809" type="curve" smooth="yes"/>
    </contour>
    <contour>
      <point x="181" y="802" type="line" smooth="yes"/>
      <point x="181" y="1153"/>
      <point x="367" y="1371"/>
      <point x="656" y="1371" type="curve" smooth="yes"/>
      <point x="797" y="1371"/>
      <point x="911" y="1323"/>
      <point x="995" y="1227" type="curve"/>
      <point x="324" y="170" type="line"/>
      <point x="229" y="272"/>
      <point x="181" y="414"/>
      <point x="181" y="597" type="curve" smooth="yes"/>
    </contour>
  </outline>
</glyph>
<glyph name="Ugrave" format="2">
  <advance width="1315"/>
  <unicode hex="00D9"/>
  <note>
uni00D9
</note>
  <outline>
    <contour>
      <point x="1085" y="1404" type="line"/>
      <point x="1085" y="456" type="line" smooth="yes"/>
      <point x="1085" y="195"/>
      <point x="916" y="33"/>
      <point x="658" y="33" type="curve" smooth="yes"/>
      <point x="400" y="33"/>
      <point x="230" y="195"/>
      <point x="230" y="455" type="curve" smooth="yes"/>
      <point x="230" y="1404" type="line"/>
      <point x="178" y="1404" type="line"/>
      <point x="178" y="449" type="line" smooth="yes"/>
      <point x="179" y="157"/>
      <point x="364" y="-19"/>
      <point x="658" y="-19" type="curve" smooth="yes"/>
      <point x="952" y="-19"/>
      <point x="1137" y="156"/>
      <point x="1137" y="453" type="curve" smooth="yes"/>
      <point x="1137" y="1404" type="line"/>
    </contour>
    <contour>
      <point x="529" y="1800" type="line"/>
      <point x="465" y="1800" type="line"/>
      <point x="653" y="1543" type="line"/>
      <point x="710" y="1543" type="line"/>
    </contour>
  </outline>
</glyph>
<glyph name="Uacute" format="2">
  <advance width="1315"/>
  <unicode hex="00DA"/>
  <note>
uni00DA
</note>
  <outline>
    <contour>
      <point x="1085" y="1404" type="line"/>
      <point x="1085" y="456" type="line" smooth="yes"/>
      <point x="1085" y="195"/>
      <point x="916" y="33"/>
      <point x="658" y="33" type="curve" smooth="yes"/>
      <point x="400" y="33"/>
      <point x="230" y="195"/>
      <point x="230" y="455" type="curve" smooth="yes"/>
      <point x="230" y="1404" type="line"/>
      <point x="178" y="1404" type="line"/>
      <point x="178" y="449" type="line" smooth="yes"/>
      <point x="179" y="157"/>
      <point x="364" y="-19"/>
      <point x="658" y="-19" type="curve" smooth="yes"/>
      <point x="952" y="-19"/>
      <point x="1137" y="156"/>
      <point x="1137" y="453" type="curve" smooth="yes"/>
      <point x="1137" y="1404" type="line"/>
    </contour>
    <contour>
      <point x="637" y="1543" type="line"/>
      <point x="695" y="1543" type="line"/>
      <point x="882" y="1800" type="line"/>
      <point x="819" y="1800" type="line"/>
    </contour>
  </outline>
</glyph>
<glyph name="Udieresis" format="2">
  <advance width="1315"/>
  <unicode hex="00DC"/>
  <note>
uni00DC
</note>
  <outline>
    <contour>
      <point x="1085" y="1404" type="line"/>
      <point x="1085" y="456" type="line" smooth="yes"/>
      <point x="1085" y="195"/>
      <point x="916" y="33"/>
      <point x="658" y="33" type="curve" smooth="yes"/>
      <point x="400" y="33"/>
      <point x="230" y="195"/>
      <point x="230" y="455" type="curve" smooth="yes"/>
      <point x="230" y="1404" type="line"/>
      <point x="178" y="1404" type="line"/>
      <point x="178" y="449" type="line" smooth="yes"/>
      <point x="179" y="157"/>
      <point x="364" y="-19"/>
      <point x="658" y="-19" type="curve" smooth="yes"/>
      <point x="952" y="-19"/>
      <point x="1137" y="156"/>
      <point x="1137" y="453" type="curve" smooth="yes"/>
      <point x="1137" y="1404" type="line"/>
    </contour>
    <contour>
      <point x="406" y="1689" type="curve" smooth="yes"/>
      <point x="406" y="1659"/>
      <point x="430" y="1636"/>
      <point x="459" y="1636" type="curve" smooth="yes"/>
      <point x="489" y="1636"/>
      <point x="513" y="1659"/>
      <point x="513" y="1689" type="curve" smooth="yes"/>
      <point x="513" y="1718"/>
      <point x="489" y="1743"/>
      <point x="459" y="1743" type="curve" smooth="yes"/>
      <point x="430" y="1743"/>
      <point x="406" y="1718"/>
    </contour>
    <contour>
      <point x="835" y="1689" type="curve" smooth="yes"/>
      <point x="835" y="1659"/>
      <point x="858" y="1636"/>
      <point x="888" y="1636" type="curve" smooth="yes"/>
      <point x="918" y="1636"/>
      <point x="942" y="1659"/>
      <point x="942" y="1689" type="curve" smooth="yes"/>
      <point x="942" y="1718"/>
      <point x="918" y="1743"/>
      <point x="888" y="1743" type="curve" smooth="yes"/>
      <point x="858" y="1743"/>
      <point x="835" y="1718"/>
    </contour>
  </outline>
</glyph>
<glyph name="Thorn" format="2">
  <advance width="1175"/>
  <unicode hex="00DE"/>
  <note>
uni00DE
</note>
  <outline>
    <contour>
      <point x="193" y="1404" type="line"/>
      <point x="193" y="0" type="line"/>
      <point x="245" y="0" type="line"/>
      <point x="245" y="322" type="line"/>
      <point x="616" y="322" type="line" smooth="yes"/>
      <point x="874" y="327"/>
      <point x="1036" y="480"/>
      <point x="1036" y="711" type="curve" smooth="yes"/>
      <point x="1036" y="944"/>
      <point x="873" y="1099"/>
      <point x="608" y="1102" type="curve" smooth="yes"/>
      <point x="245" y="1102" type="line"/>
      <point x="245" y="1404" type="line"/>
    </contour>
    <contour>
      <point x="617" y="1050" type="line" smooth="yes"/>
      <point x="841" y="1045"/>
      <point x="984" y="906"/>
      <point x="984" y="710" type="curve" smooth="yes"/>
      <point x="984" y="514"/>
      <point x="835" y="374"/>
      <point x="602" y="374" type="curve" smooth="yes"/>
      <point x="245" y="374" type="line"/>
      <point x="245" y="1050" type="line"/>
    </contour>
  </outline>
</glyph>
<glyph name="ae" format="2">
  <advance width="1673"/>
  <unicode hex="00E6"/>
  <note>
uni00E6
</note>
  <outline>
    <contour>
      <point x="1223" y="-19" type="curve" smooth="yes"/>
      <point x="1364" y="-19"/>
      <point x="1470" y="16"/>
      <point x="1572" y="118" type="curve"/>
      <point x="1543" y="158" type="line"/>
      <point x="1460" y="75"/>
      <point x="1354" y="33"/>
      <point x="1223" y="33" type="curve" smooth="yes"/>
      <point x="1027" y="33"/>
      <point x="839" y="105"/>
      <point x="839" y="556" type="curve"/>
      <point x="1598" y="556" type="line"/>
      <point x="1598" y="632" type="line" smooth="yes"/>
      <point x="1598" y="906"/>
      <point x="1447" y="1062"/>
      <point x="1208" y="1062" type="curve" smooth="yes"/>
      <point x="1041" y="1062"/>
      <point x="901" y="961"/>
      <point x="829" y="785" type="curve"/>
      <point x="800" y="965"/>
      <point x="684" y="1062"/>
      <point x="502" y="1062" type="curve" smooth="yes"/>
      <point x="275" y="1062"/>
      <point x="117" y="936"/>
      <point x="117" y="750" type="curve"/>
      <point x="168" y="743" type="line"/>
      <point x="168" y="904"/>
      <point x="299" y="1010"/>
      <point x="502" y="1010" type="curve" smooth="yes"/>
      <point x="693" y="1010"/>
      <point x="784" y="895"/>
      <point x="784" y="694" type="curve" smooth="yes"/>
      <point x="784" y="607" type="line"/>
      <point x="498" y="607" type="line" smooth="yes"/>
      <point x="238" y="605"/>
      <point x="90" y="477"/>
      <point x="90" y="274" type="curve" smooth="yes"/>
      <point x="90" y="94"/>
      <point x="216" y="-19"/>
      <point x="432" y="-19" type="curve" smooth="yes"/>
      <point x="610" y="-19"/>
      <point x="756" y="24"/>
      <point x="837" y="222" type="curve"/>
      <point x="904" y="74"/>
      <point x="1034" y="-19"/>
    </contour>
    <contour>
      <point x="431" y="31" type="curve" smooth="yes"/>
      <point x="243" y="31"/>
      <point x="143" y="121"/>
      <point x="143" y="270" type="curve" smooth="yes"/>
      <point x="143" y="440"/>
      <point x="279" y="550"/>
      <point x="494" y="554" type="curve" smooth="yes"/>
      <point x="784" y="554" type="line"/>
      <point x="784" y="217" type="line"/>
      <point x="748" y="109"/>
      <point x="556" y="31"/>
    </contour>
    <contour>
      <point x="1208" y="1010" type="curve" smooth="yes"/>
      <point x="1418" y="1010"/>
      <point x="1546" y="864"/>
      <point x="1546" y="640" type="curve" smooth="yes"/>
      <point x="1546" y="609" type="line"/>
      <point x="842" y="609" type="line"/>
      <point x="866" y="852"/>
      <point x="1011" y="1010"/>
    </contour>
  </outline>
</glyph>
<glyph name="egrave" format="2">
  <advance width="995"/>
  <unicode hex="00E8"/>
  <note>
uni00E8
</note>
  <outline>
    <contour>
      <point x="541" y="-19" type="curve" smooth="yes"/>
      <point x="694" y="-19"/>
      <point x="810" y="37"/>
      <point x="887" y="149" type="curve"/>
      <point x="851" y="175" type="line"/>
      <point x="775" y="78"/>
      <point x="681" y="32"/>
      <point x="541" y="32" type="curve" smooth="yes"/>
      <point x="281" y="32"/>
      <point x="136" y="258"/>
      <point x="136" y="556" type="curve"/>
      <point x="918" y="556" type="line"/>
      <point x="918" y="611" type="line" smooth="yes"/>
      <point x="918" y="881"/>
      <point x="755" y="1062"/>
      <point x="522" y="1062" type="curve" smooth="yes"/>
      <point x="253" y="1062"/>
      <point x="84" y="811"/>
      <point x="84" y="542" type="curve" smooth="yes"/>
      <point x="84" y="498" type="line" smooth="yes"/>
      <point x="84" y="217"/>
      <point x="273" y="-19"/>
    </contour>
    <contour>
      <point x="522" y="1010" type="curve" smooth="yes"/>
      <point x="735" y="1010"/>
      <point x="866" y="824"/>
      <point x="866" y="621" type="curve" smooth="yes"/>
      <point x="866" y="608" type="line"/>
      <point x="139" y="608" type="line"/>
      <point x="164" y="842"/>
      <point x="319" y="1010"/>
    </contour>
    <contour>
      <point x="406" y="1480" type="line"/>
      <point x="342" y="1480" type="line"/>
      <point x="530" y="1223" type="line"/>
      <point x="587" y="1223" type="line"/>
    </contour>
  </outline>
</glyph>
<glyph name="iacute" format="2">
  <advance width="391"/>
  <unicode hex="00ED"/>
  <note>
uni00ED
</note>
  <outline>
    <contour>
      <point x="223" y="1043" type="line"/>
      <point x="171" y="1043" type="line"/>
      <point x="171" y="0" type="line"/>
      <point x="223" y="0" type="line"/>
    </contour>
    <contour>
      <point x="163" y="1201" type="line"/>
      <point x="221" y="1201" type="line"/>
      <point x="408" y="1458" type="line"/>
      <point x="345" y="1458" type="line"/>
    </contour>
  </outline>
</glyph>
<glyph name="eth" format="2">
  <advance width="1141"/>
  <unicode hex="00F0"/>
  <note>
uni00F0
</note>
  <outline>
    <contour>
      <point x="956" y="1362" type="line"/>
      <point x="928" y="1408" type="line"/>
      <point x="733" y="1299" type="line"/>
      <point x="637" y="1388"/>
      <point x="507" y="1461"/>
      <point x="345" y="1520" type="curve"/>
      <point x="326" y="1472" type="line"/>
      <point x="476" y="1417"/>
      <point x="595" y="1350"/>
      <point x="684" y="1272" type="curve"/>
      <point x="472" y="1154" type="line"/>
      <point x="499" y="1108" type="line"/>
      <point x="725" y="1234" type="line"/>
      <point x="840" y="1118"/>
      <point x="916" y="968"/>
      <point x="942" y="752" type="curve"/>
      <point x="865" y="860"/>
      <point x="725" y="919"/>
      <point x="580" y="919" type="curve" smooth="yes"/>
      <point x="320" y="919"/>
      <point x="167" y="745"/>
      <point x="167" y="448" type="curve" smooth="yes"/>
      <point x="167" y="190"/>
      <point x="343" y="-19"/>
      <point x="607" y="-19" type="curve" smooth="yes"/>
      <point x="872" y="-19"/>
      <point x="1004" y="249"/>
      <point x="1004" y="516" type="curve" smooth="yes"/>
      <point x="1004" y="593" type="line" smooth="yes"/>
      <point x="1004" y="887"/>
      <point x="929" y="1100"/>
      <point x="773" y="1261" type="curve"/>
    </contour>
    <contour>
      <point x="611" y="37" type="curve" smooth="yes"/>
      <point x="373" y="37"/>
      <point x="220" y="225"/>
      <point x="220" y="448" type="curve" smooth="yes"/>
      <point x="220" y="709"/>
      <point x="352" y="863"/>
      <point x="580" y="863" type="curve" smooth="yes"/>
      <point x="751" y="863"/>
      <point x="892" y="783"/>
      <point x="951" y="648" type="curve"/>
      <point x="952" y="501" type="line" smooth="yes"/>
      <point x="947" y="225"/>
      <point x="811" y="37"/>
    </contour>
  </outline>
</glyph>
<glyph name="oacute" format="2">
  <advance width="1087"/>
  <unicode hex="00F3"/>
  <note>
uni00F3
</note>
  <outline>
    <contour>
      <point x="87" y="495" type="line" smooth="yes"/>
      <point x="89" y="194"/>
      <point x="275" y="-19"/>
      <point x="545" y="-19" type="curve" smooth="yes"/>
      <point x="826" y="-19"/>
      <point x="1000" y="209"/>
      <point x="1000" y="501" type="curve" smooth="yes"/>
      <point x="1000" y="548" type="line" smooth="yes"/>
      <point x="999" y="832"/>
      <point x="827" y="1062"/>
      <point x="543" y="1062" type="curve" smooth="yes"/>
      <point x="261" y="1062"/>
      <point x="87" y="832"/>
      <point x="87" y="542" type="curve" smooth="yes"/>
    </contour>
    <contour>
      <point x="139" y="532" type="line" smooth="yes"/>
      <point x="139" y="807"/>
      <point x="305" y="1010"/>
      <point x="543" y="1010" type="curve" smooth="yes"/>
      <point x="795" y="1010"/>
      <point x="948" y="787"/>
      <point x="948" y="542" type="curve" smooth="yes"/>
      <point x="948" y="512" type="line" smooth="yes"/>
      <point x="948" y="230"/>
      <point x="783" y="33"/>
      <point x="545" y="33" type="curve" smooth="yes"/>
      <point x="289" y="33"/>
      <point x="139" y="255"/>
      <point x="139" y="501" type="curve" smooth="yes"/>
    </contour>
    <contour>
      <point x="512" y="1222" type="line"/>
      <point x="570" y="1222" type="line"/>
      <point x="757" y="1479" type="line"/>
      <point x="694" y="1479" type="line"/>
    </contour>
  </outline>
</glyph>
<glyph name="otilde" format="2">
  <advance width="1087"/>
  <unicode hex="00F5"/>
  <note>
uni00F5
</note>
  <outline>
    <contour>
      <point x="87" y="495" type="line" smooth="yes"/>
      <point x="89" y="194"/>
      <point x="275" y="-19"/>
      <point x="545" y="-19" type="curve" smooth="yes"/>
      <point x="826" y="-19"/>
      <point x="1000" y="209"/>
      <point x="1000" y="501" type="curve" smooth="yes"/>
      <point x="1000" y="548" type="line" smooth="yes"/>
      <point x="999" y="832"/>
      <point x="827" y="1062"/>
      <point x="543" y="1062" type="curve" smooth="yes"/>
      <point x="261" y="1062"/>
      <point x="87" y="832"/>
      <point x="87" y="542" type="curve" smooth="yes"/>
    </contour>
    <contour>
      <point x="139" y="532" type="line" smooth="yes"/>
      <point x="139" y="807"/>
      <point x="305" y="1010"/>
      <point x="543" y="1010" type="curve" smooth="yes"/>
      <point x="795" y="1010"/>
      <point x="948" y="787"/>
      <point x="948" y="542" type="curve" smooth="yes"/>
      <point x="948" y="512" type="line" smooth="yes"/>
      <point x="948" y="230"/>
      <point x="783" y="33"/>
      <point x="545" y="33" type="curve" smooth="yes"/>
      <point x="289" y="33"/>
      <point x="139" y="255"/>
      <point x="139" y="501" type="curve" smooth="yes"/>
    </contour>
    <contour>
      <point x="810" y="1431" type="line"/>
      <point x="810" y="1355"/>
      <point x="763" y="1305"/>
      <point x="694" y="1305" type="curve" smooth="yes"/>
      <point x="590" y="1305"/>
      <point x="545" y="1424"/>
      <point x="417" y="1424" type="curve" smooth="yes"/>
      <point x="319" y="1424"/>
      <point x="247" y="1355"/>
      <point x="247" y="1252" type="curve"/>
      <point x="300" y="1252" type="line"/>
      <point x="300" y="1325"/>
      <point x="345" y="1372"/>
      <point x="417" y="1372" type="curve" smooth="yes"/>
      <point x="457" y="1372"/>
      <point x="500" y="1352"/>
      <point x="546" y="1312" type="curve" smooth="yes"/>
      <point x="593" y="1272"/>
      <point x="642" y="1252"/>
      <point x="694" y="1252" type="curve" smooth="yes"/>
      <point x="790" y="1252"/>
      <point x="863" y="1326"/>
      <point x="863" y="1431" type="curve"/>
    </contour>
  </outline>
</glyph>
<glyph name="divide" format="2">
  <advance width="1083"/>
  <unicode hex="00F7"/>
  <outline>
    <contour>
      <point x="981" y="722" type="line"/>
      <point x="102" y="722" type="line"/>
      <point x="102" y="672" type="line"/>
      <point x="981" y="672" type="line"/>
    </contour>
    <contour>
      <point x="503" y="1065" type="curve" smooth="yes"/>
      <point x="503" y="1035"/>
      <point x="526" y="1012"/>
      <point x="556" y="1012" type="curve" smooth="yes"/>
      <point x="585" y="1012"/>
      <point x="610" y="1035"/>
      <point x="610" y="1065" type="curve" smooth="yes"/>
      <point x="610" y="1095"/>
      <point x="585" y="1119"/>
      <point x="556" y="1119" type="curve" smooth="yes"/>
      <point x="526" y="1119"/>
      <point x="503" y="1095"/>
    </contour>
    <contour>
      <point x="503" y="315" type="curve" smooth="yes"/>
      <point x="503" y="285"/>
      <point x="526" y="262"/>
      <point x="556" y="262" type="curve" smooth="yes"/>
      <point x="585" y="262"/>
      <point x="610" y="285"/>
      <point x="610" y="315" type="curve" smooth="yes"/>
      <point x="610" y="345"/>
      <point x="585" y="369"/>
      <point x="556" y="369" type="curve" smooth="yes"/>
      <point x="526" y="369"/>
      <point x="503" y="345"/>
    </contour>
  </outline>
</glyph>
<glyph name="oslash" format="2">
  <advance width="1081"/>
  <unicode hex="00F8"/>
  <note>
uni00F8
</note>
  <outline>
    <contour>
      <point x="84" y="503" type="curve" smooth="yes"/>
      <point x="84" y="308"/>
      <point x="160" y="143"/>
      <point x="292" y="54" type="curve"/>
      <point x="198" y="-140" type="line"/>
      <point x="259" y="-140" type="line"/>
      <point x="340" y="27" type="line"/>
      <point x="402" y="-4"/>
      <point x="470" y="-19"/>
      <point x="542" y="-19" type="curve" smooth="yes"/>
      <point x="823" y="-19"/>
      <point x="997" y="209"/>
      <point x="997" y="501" type="curve" smooth="yes"/>
      <point x="997" y="739"/>
      <point x="933" y="883"/>
      <point x="802" y="979" type="curve"/>
      <point x="898" y="1175" type="line"/>
      <point x="837" y="1175" type="line"/>
      <point x="756" y="1009" type="line"/>
      <point x="689" y="1045"/>
      <point x="617" y="1062"/>
      <point x="540" y="1062" type="curve" smooth="yes"/>
      <point x="279" y="1062"/>
      <point x="84" y="874"/>
    </contour>
    <contour>
      <point x="136" y="532" type="line" smooth="yes"/>
      <point x="136" y="807"/>
      <point x="302" y="1010"/>
      <point x="540" y="1010" type="curve" smooth="yes"/>
      <point x="611" y="1010"/>
      <point x="675" y="993"/>
      <point x="732" y="959" type="curve"/>
      <point x="315" y="103" type="line"/>
      <point x="204" y="185"/>
      <point x="136" y="332"/>
      <point x="136" y="501" type="curve" smooth="yes"/>
    </contour>
    <contour>
      <point x="945" y="512" type="line" smooth="yes"/>
      <point x="945" y="230"/>
      <point x="780" y="33"/>
      <point x="542" y="33" type="curve" smooth="yes"/>
      <point x="476" y="33"/>
      <point x="416" y="47"/>
      <point x="363" y="74" type="curve"/>
      <point x="777" y="928" type="line"/>
      <point x="884" y="842"/>
      <point x="945" y="699"/>
      <point x="945" y="542" type="curve" smooth="yes"/>
    </contour>
  </outline>
</glyph>
<glyph name="uacute" format="2">
  <advance width="1081"/>
  <unicode hex="00FA"/>
  <note>
uni00FA
</note>
  <outline>
    <contour>
      <point x="865" y="0" type="line"/>
      <point x="918" y="0" type="line"/>
      <point x="918" y="1043" type="line"/>
      <point x="865" y="1043" type="line"/>
      <point x="865" y="309" type="line"/>
      <point x="831" y="128"/>
      <point x="703" y="33"/>
      <point x="503" y="33" type="curve" smooth="yes"/>
      <point x="316" y="33"/>
      <point x="217" y="148"/>
      <point x="214" y="369" type="curve" smooth="yes"/>
      <point x="214" y="1043" type="line"/>
      <point x="162" y="1043" type="line"/>
      <point x="162" y="371" type="line" smooth="yes"/>
      <point x="165" y="117"/>
      <point x="278" y="-19"/>
      <point x="505" y="-19" type="curve" smooth="yes"/>
      <point x="687" y="-19"/>
      <point x="803" y="53"/>
      <point x="865" y="169" type="curve"/>
    </contour>
    <contour>
      <point x="525" y="1224" type="line"/>
      <point x="583" y="1224" type="line"/>
      <point x="770" y="1481" type="line"/>
      <point x="707" y="1481" type="line"/>
    </contour>
  </outline>
</glyph>
<glyph name="ucircumflex" format="2">
  <advance width="1081"/>
  <unicode hex="00FB"/>
  <note>
uni00FB
</note>
  <outline>
    <contour>
      <point x="865" y="0" type="line"/>
      <point x="918" y="0" type="line"/>
      <point x="918" y="1043" type="line"/>
      <point x="865" y="1043" type="line"/>
      <point x="865" y="309" type="line"/>
      <point x="831" y="128"/>
      <point x="703" y="33"/>
      <point x="503" y="33" type="curve" smooth="yes"/>
      <point x="316" y="33"/>
      <point x="217" y="148"/>
      <point x="214" y="369" type="curve" smooth="yes"/>
      <point x="214" y="1043" type="line"/>
      <point x="162" y="1043" type="line"/>
      <point x="162" y="371" type="line" smooth="yes"/>
      <point x="165" y="117"/>
      <point x="278" y="-19"/>
      <point x="505" y="-19" type="curve" smooth="yes"/>
      <point x="687" y="-19"/>
      <point x="803" y="53"/>
      <point x="865" y="169" type="curve"/>
    </contour>
    <contour>
      <point x="579" y="1462" type="line"/>
      <point x="541" y="1462" type="line"/>
      <point x="319" y="1232" type="line"/>
      <point x="319" y="1218" type="line"/>
      <point x="381" y="1218" type="line"/>
      <point x="559" y="1407" type="line"/>
      <point x="739" y="1218" type="line"/>
      <point x="805" y="1218" type="line"/>
      <point x="805" y="1228" type="line"/>
    </contour>
  </outline>
</glyph>
<glyph name="yacute" format="2">
  <advance width="943"/>
  <unicode hex="00FD"/>
  <note>
uni00FD
</note>
  <outline>
    <contour>
      <point x="98" y="1043" type="line"/>
      <point x="41" y="1043" type="line"/>
      <point x="457" y="6" type="line"/>
      <point x="393" y="-167" type="line" smooth="yes"/>
      <point x="340" y="-311"/>
      <point x="273" y="-370"/>
      <point x="163" y="-370" type="curve"/>
      <point x="93" y="-362" type="line"/>
      <point x="94" y="-411" type="line"/>
      <point x="108" y="-418"/>
      <point x="134" y="-421"/>
      <point x="171" y="-421" type="curve" smooth="yes"/>
      <point x="287" y="-421"/>
      <point x="370" y="-361"/>
      <point x="420" y="-239" type="curve" smooth="yes"/>
      <point x="443" y="-181" type="line"/>
      <point x="910" y="1043" type="line"/>
      <point x="852" y="1043" type="line"/>
      <point x="484" y="81" type="line"/>
    </contour>
    <contour>
      <point x="466" y="1224" type="line"/>
      <point x="524" y="1224" type="line"/>
      <point x="711" y="1481" type="line"/>
      <point x="648" y="1481" type="line"/>
    </contour>
  </outline>
</glyph>
<glyph name="oe" format="2">
  <advance width="1856"/>
  <unicode hex="0153"/>
  <note>
uni0153
</note>
  <outline>
    <contour>
      <point x="89" y="495" type="line" smooth="yes"/>
      <point x="91" y="194"/>
      <point x="278" y="-19"/>
      <point x="547" y="-19" type="curve" smooth="yes"/>
      <point x="752" y="-19"/>
      <point x="915" y="104"/>
      <point x="977" y="319" type="curve"/>
      <point x="1036" y="117"/>
      <point x="1204" y="-19"/>
      <point x="1393" y="-19" type="curve" smooth="yes"/>
      <point x="1549" y="-19"/>
      <point x="1668" y="27"/>
      <point x="1750" y="119" type="curve"/>
      <point x="1722" y="159" type="line"/>
      <point x="1651" y="75"/>
      <point x="1541" y="33"/>
      <point x="1393" y="33" type="curve" smooth="yes"/>
      <point x="1239" y="33"/>
      <point x="1007" y="118"/>
      <point x="1007" y="556" type="curve"/>
      <point x="1789" y="556" type="line"/>
      <point x="1789" y="632" type="line" smooth="yes"/>
      <point x="1789" y="895"/>
      <point x="1628" y="1062"/>
      <point x="1390" y="1062" type="curve" smooth="yes"/>
      <point x="1197" y="1062"/>
      <point x="1038" y="927"/>
      <point x="979" y="720" type="curve"/>
      <point x="919" y="932"/>
      <point x="759" y="1062"/>
      <point x="545" y="1062" type="curve" smooth="yes"/>
      <point x="271" y="1062"/>
      <point x="89" y="840"/>
      <point x="89" y="542" type="curve" smooth="yes"/>
    </contour>
    <contour>
      <point x="141" y="532" type="line" smooth="yes"/>
      <point x="141" y="807"/>
      <point x="308" y="1010"/>
      <point x="545" y="1010" type="curve" smooth="yes"/>
      <point x="798" y="1010"/>
      <point x="950" y="788"/>
      <point x="950" y="542" type="curve" smooth="yes"/>
      <point x="950" y="512" type="line" smooth="yes"/>
      <point x="950" y="230"/>
      <point x="785" y="33"/>
      <point x="547" y="33" type="curve" smooth="yes"/>
      <point x="289" y="33"/>
      <point x="141" y="258"/>
      <point x="141" y="501" type="curve" smooth="yes"/>
    </contour>
    <contour>
      <point x="1390" y="1010" type="curve" smooth="yes"/>
      <point x="1592" y="1010"/>
      <point x="1737" y="857"/>
      <point x="1737" y="640" type="curve" smooth="yes"/>
      <point x="1737" y="608" type="line"/>
      <point x="1010" y="608" type="line"/>
      <point x="1034" y="845"/>
      <point x="1187" y="1010"/>
    </contour>
  </outline>
</glyph>
<glyph name="Scaron" format="2">
  <advance width="1168"/>
  <unicode hex="0160"/>
  <note>
uni0160
</note>
  <outline>
    <contour>
      <point x="1034" y="336" type="curve" smooth="yes"/>
      <point x="1034" y="156"/>
      <point x="857" y="33"/>
      <point x="611" y="33" type="curve" smooth="yes"/>
      <point x="335" y="33"/>
      <point x="145" y="166"/>
      <point x="145" y="396" type="curve"/>
      <point x="93" y="396" type="line"/>
      <point x="93" y="227"/>
      <point x="175" y="99"/>
      <point x="337" y="31" type="curve" smooth="yes"/>
      <point x="418" y="-2"/>
      <point x="509" y="-19"/>
      <point x="611" y="-19" type="curve" smooth="yes"/>
      <point x="865" y="-19"/>
      <point x="1087" y="104"/>
      <point x="1087" y="338" type="curve" smooth="yes"/>
      <point x="1087" y="450"/>
      <point x="1042" y="538"/>
      <point x="952" y="604" type="curve" smooth="yes"/>
      <point x="882" y="656"/>
      <point x="770" y="702"/>
      <point x="618" y="742" type="curve" smooth="yes"/>
      <point x="313" y="821"/>
      <point x="191" y="913"/>
      <point x="191" y="1082" type="curve" smooth="yes"/>
      <point x="191" y="1247"/>
      <point x="357" y="1371"/>
      <point x="604" y="1371" type="curve" smooth="yes"/>
      <point x="850" y="1371"/>
      <point x="1020" y="1218"/>
      <point x="1020" y="1008" type="curve"/>
      <point x="1072" y="1008" type="line"/>
      <point x="1072" y="1252"/>
      <point x="881" y="1423"/>
      <point x="604" y="1423" type="curve" smooth="yes"/>
      <point x="328" y="1423"/>
      <point x="139" y="1284"/>
      <point x="139" y="1080" type="curve" smooth="yes"/>
      <point x="139" y="833"/>
      <point x="365" y="756"/>
      <point x="588" y="696" type="curve" smooth="yes"/>
      <point x="831" y="629"/>
      <point x="936" y="571"/>
      <point x="992" y="488" type="curve" smooth="yes"/>
      <point x="1020" y="447"/>
      <point x="1034" y="396"/>
    </contour>
    <contour>
      <point x="423" y="1797" type="line"/>
      <point x="368" y="1797" type="line"/>
      <point x="368" y="1786" type="line"/>
      <point x="581" y="1543" type="line"/>
      <point x="637" y="1543" type="line"/>
      <point x="848" y="1784" type="line"/>
      <point x="848" y="1797" type="line"/>
      <point x="797" y="1797" type="line"/>
      <point x="609" y="1588" type="line"/>
    </contour>
  </outline>
</glyph>
<glyph name="Zcaron" format="2">
  <advance width="1180"/>
  <unicode hex="017D"/>
  <note>
uni017D
</note>
  <outline>
    <contour>
      <point x="1059" y="1367" type="line"/>
      <point x="1059" y="1404" type="line"/>
      <point x="129" y="1404" type="line"/>
      <point x="129" y="1352" type="line"/>
      <point x="986" y="1352" type="line"/>
      <point x="91" y="42" type="line"/>
      <point x="91" y="0" type="line"/>
      <point x="1089" y="0" type="line"/>
      <point x="1089" y="52" type="line"/>
      <point x="162" y="52" type="line"/>
    </contour>
    <contour>
      <point x="399" y="1776" type="line"/>
      <point x="344" y="1776" type="line"/>
      <point x="344" y="1765" type="line"/>
      <point x="557" y="1522" type="line"/>
      <point x="613" y="1522" type="line"/>
      <point x="824" y="1763" type="line"/>
      <point x="824" y="1776" type="line"/>
      <point x="773" y="1776" type="line"/>
      <point x="585" y="1567" type="line"/>
    </contour>
  </outline>
</glyph>
<glyph name="zcaron" format="2">
  <advance width="943"/>
  <unicode hex="017E"/>
  <note>
uni017E
</note>
  <outline>
    <contour>
      <point x="840" y="997" type="line"/>
      <point x="840" y="1043" type="line"/>
      <point x="114" y="1043" type="line"/>
      <point x="114" y="990" type="line"/>
      <point x="770" y="990" type="line"/>
      <point x="84" y="42" type="line"/>
      <point x="84" y="0" type="line"/>
      <point x="897" y="0" type="line"/>
      <point x="897" y="52" type="line"/>
      <point x="155" y="52" type="line"/>
    </contour>
    <contour>
      <point x="305" y="1457" type="line"/>
      <point x="250" y="1457" type="line"/>
      <point x="250" y="1446" type="line"/>
      <point x="463" y="1203" type="line"/>
      <point x="519" y="1203" type="line"/>
      <point x="730" y="1444" type="line"/>
      <point x="730" y="1457" type="line"/>
      <point x="679" y="1457" type="line"/>
      <point x="491" y="1248" type="line"/>
    </contour>
  </outline>
</glyph>
<glyph name="florin" format="2">
  <advance width="621"/>
  <unicode hex="0192"/>
  <note>
uni0192
</note>
  <outline>
    <contour>
      <point x="571" y="1043" type="line"/>
      <point x="296" y="1043" type="line"/>
      <point x="296" y="1192" type="line" smooth="yes"/>
      <point x="296" y="1356"/>
      <point x="380" y="1449"/>
      <point x="517" y="1449" type="curve" smooth="yes"/>
      <point x="560" y="1449"/>
      <point x="599" y="1444"/>
      <point x="632" y="1434" type="curve"/>
      <point x="640" y="1485" type="line"/>
      <point x="605" y="1495"/>
      <point x="564" y="1501"/>
      <point x="516" y="1501" type="curve" smooth="yes"/>
      <point x="345" y="1501"/>
      <point x="245" y="1388"/>
      <point x="243" y="1195" type="curve" smooth="yes"/>
      <point x="243" y="1043" type="line"/>
      <point x="62" y="1043" type="line"/>
      <point x="62" y="990" type="line"/>
      <point x="243" y="990" type="line"/>
      <point x="243" y="-86" type="line" smooth="yes"/>
      <point x="243" y="-268"/>
      <point x="165" y="-369"/>
      <point x="21" y="-369" type="curve" smooth="yes"/>
      <point x="-12" y="-369"/>
      <point x="-44" y="-363"/>
      <point x="-75" y="-352" type="curve"/>
      <point x="-87" y="-402" type="line"/>
      <point x="-50" y="-415"/>
      <point x="-14" y="-421"/>
      <point x="21" y="-421" type="curve" smooth="yes"/>
      <point x="194" y="-421"/>
      <point x="296" y="-304"/>
      <point x="296" y="-86" type="curve" smooth="yes"/>
      <point x="296" y="990" type="line"/>
      <point x="571" y="990" type="line"/>
    </contour>
  </outline>
</glyph>
<glyph name="comma-ar" format="2">
  <advance width="398"/>
  <unicode hex="060C"/>
  <outline>
    <contour>
      <point x="207" y="79" type="line"/>
      <point x="199" y="210"/>
      <point x="229" y="255"/>
      <point x="264" y="327" type="curve" smooth="yes"/>
      <point x="269" y="337"/>
      <point x="265" y="340"/>
      <point x="260" y="341" type="curve" smooth="yes"/>
      <point x="252" y="342"/>
      <point x="242" y="343"/>
      <point x="236" y="343" type="curve" smooth="yes"/>
      <point x="227" y="343"/>
      <point x="225" y="340"/>
      <point x="217" y="332" type="curve" smooth="yes"/>
      <point x="193" y="307"/>
      <point x="113" y="201"/>
      <point x="120" y="79" type="curve"/>
    </contour>
    <component base="period"/>
  </outline>
</glyph>
<glyph name="hamza-ar" format="2">
  <advance width="1041"/>
  <unicode hex="0621"/>
  <anchor x="519" y="-181" name="bottom"/>
  <anchor x="536" y="1090" name="top"/>
  <outline>
    <contour>
      <point x="967" y="5" type="curve" smooth="yes"/>
      <point x="970" y="19"/>
      <point x="970" y="33"/>
      <point x="967" y="47" type="curve" smooth="yes"/>
      <point x="966" y="50"/>
      <point x="965" y="52"/>
      <point x="962" y="52" type="curve" smooth="yes"/>
      <point x="644" y="52" type="line" smooth="yes"/>
      <point x="460" y="52"/>
      <point x="285" y="246"/>
      <point x="285" y="420" type="curve" smooth="yes"/>
      <point x="285" y="586"/>
      <point x="397" y="773"/>
      <point x="644" y="773" type="curve" smooth="yes"/>
      <point x="827" y="773" type="line" smooth="yes"/>
      <point x="830" y="773"/>
      <point x="831" y="775"/>
      <point x="831" y="779" type="curve" smooth="yes"/>
      <point x="830" y="793"/>
      <point x="826" y="807"/>
      <point x="819" y="821" type="curve" smooth="yes"/>
      <point x="818" y="823"/>
      <point x="817" y="825"/>
      <point x="814" y="825" type="curve" smooth="yes"/>
      <point x="643" y="825" type="line" smooth="yes"/>
      <point x="389" y="825"/>
      <point x="233" y="639"/>
      <point x="233" y="420" type="curve" smooth="yes"/>
      <point x="233" y="292"/>
      <point x="309" y="150"/>
      <point x="467" y="52" type="curve"/>
      <point x="99" y="52" type="line" smooth="yes"/>
      <point x="96" y="52"/>
      <point x="95" y="50"/>
      <point x="94" y="47" type="curve" smooth="yes"/>
      <point x="91" y="33"/>
      <point x="91" y="19"/>
      <point x="94" y="5" type="curve" smooth="yes"/>
      <point x="95" y="2"/>
      <point x="96" y="0"/>
      <point x="99" y="0" type="curve" smooth="yes"/>
      <point x="962" y="0" type="line" smooth="yes"/>
      <point x="965" y="0"/>
      <point x="966" y="2"/>
    </contour>
  </outline>
</glyph>
<glyph name="kaf-ar" format="2">
  <advance width="1583"/>
  <unicode hex="0643"/>
  <anchor x="521" y="-156" name="bottom"/>
  <anchor x="541" y="1341" name="top"/>
  <outline>
    <component base="lam-ar.init" xOffset="1100" identifier="316D5EBD"/>
    <contour>
      <point x="699" y="636" type="curve" smooth="yes"/>
      <point x="1050" y="638" type="line" smooth="yes"/>
      <point x="1069" y="638"/>
      <point x="1080" y="649"/>
      <point x="1080" y="669" type="curve" smooth="yes"/>
      <point x="1092" y="939"/>
      <point x="996" y="1007"/>
      <point x="762" y="1007" type="curve"/>
      <point x="974" y="1154" type="line" smooth="yes"/>
      <point x="998" y="1171"/>
      <point x="1007" y="1203"/>
      <point x="988" y="1227" type="curve"/>
      <point x="674" y="1011" type="line"/>
      <point x="674" y="972" type="line" smooth="yes"/>
      <point x="674" y="959"/>
      <point x="681" y="952"/>
      <point x="694" y="952" type="curve" smooth="yes"/>
      <point x="754" y="952" type="line" smooth="yes"/>
      <point x="998" y="952"/>
      <point x="1018" y="896"/>
      <point x="1025" y="700" type="curve" smooth="yes"/>
      <point x="1025" y="694"/>
      <point x="1021" y="690"/>
      <point x="1015" y="690" type="curve" smooth="yes"/>
      <point x="640" y="688" type="line"/>
      <point x="640" y="656"/>
      <point x="660" y="636"/>
    </contour>
    <component base="_kafbowl" xOffset="80" identifier="1941DD04"/>
  </outline>
</glyph>
<glyph name="four-ar" format="2">
  <advance width="926"/>
  <unicode hex="0664"/>
  <outline>
    <contour>
      <point x="772.276" y="-64.083" type="line"/>
      <point x="787" y="-41" type="line" smooth="yes"/>
      <point x="795" y="-28"/>
      <point x="791" y="-15"/>
      <point x="778" y="-7" type="curve" smooth="yes"/>
      <point x="187.927" y="360.312" type="line"/>
      <point x="712" y="807" type="line" smooth="yes"/>
      <point x="734" y="826"/>
      <point x="732" y="847"/>
      <point x="708" y="863" type="curve" smooth="yes"/>
      <point x="176.948" y="1209.811" type="line"/>
      <point x="657" y="1467" type="line" smooth="yes"/>
      <point x="671" y="1475"/>
      <point x="674" y="1487"/>
      <point x="667" y="1501" type="curve" smooth="yes"/>
      <point x="654.716" y="1524.915" type="line"/>
      <point x="123" y="1240" type="line" smooth="yes"/>
      <point x="96" y="1225"/>
      <point x="95" y="1201"/>
      <point x="121" y="1184" type="curve" smooth="yes"/>
      <point x="660.684" y="832.211" type="line"/>
      <point x="136" y="385" type="line" smooth="yes"/>
      <point x="114" y="366"/>
      <point x="116" y="345"/>
      <point x="141" y="329" type="curve" smooth="yes"/>
    </contour>
  </outline>
</glyph>
<glyph name="five-ar" format="2">
  <advance width="1249"/>
  <unicode hex="0665"/>
  <outline>
    <contour>
      <point x="627" y="135" type="curve" smooth="yes"/>
      <point x="917" y="135"/>
      <point x="1155" y="406"/>
      <point x="1155" y="722" type="curve" smooth="yes"/>
      <point x="1155" y="1018"/>
      <point x="993" y="1423"/>
      <point x="627" y="1423" type="curve" smooth="yes"/>
      <point x="259" y="1423"/>
      <point x="93" y="1018"/>
      <point x="93" y="722" type="curve" smooth="yes"/>
      <point x="93" y="406"/>
      <point x="331" y="135"/>
    </contour>
  </outline>
</glyph>
<glyph name="nine-ar" format="2">
  <advance width="1037"/>
  <unicode hex="0669"/>
  <outline>
    <contour>
      <point x="940.047" y="-0.559" type="line"/>
      <point x="952" y="0" type="line" smooth="yes"/>
      <point x="978" y="2"/>
      <point x="992" y="16"/>
      <point x="990" y="42" type="curve" smooth="yes"/>
      <point x="900.485" y="1525" type="line"/>
      <point x="426" y="1525" type="line"/>
      <point x="-108.071" y="1525"/>
      <point x="-71.388" y="698"/>
      <point x="378" y="698" type="curve"/>
      <point x="921" y="698" type="line"/>
      <point x="921" y="750" type="line"/>
      <point x="378" y="750" type="line"/>
      <point x="-2.612" y="750"/>
      <point x="-39.929" y="1473"/>
      <point x="426" y="1473" type="curve"/>
      <point x="851.515" y="1473" type="line"/>
    </contour>
  </outline>
</glyph>
<glyph name="behDotless-ar" format="2">
  <advance width="1462"/>
  <unicode hex="066E"/>
  <outline>
    <contour>
      <point x="979" y="-1" type="line" smooth="yes"/>
      <point x="1271" y="-1"/>
      <point x="1401" y="89"/>
      <point x="1401" y="351" type="curve" smooth="yes"/>
      <point x="1401" y="939" type="line" smooth="yes"/>
      <point x="1401" y="943"/>
      <point x="1398" y="943"/>
      <point x="1395" y="943" type="curve" smooth="yes"/>
      <point x="1381" y="943"/>
      <point x="1367" y="939"/>
      <point x="1353" y="929" type="curve" smooth="yes"/>
      <point x="1351" y="928"/>
      <point x="1349" y="927"/>
      <point x="1349" y="924" type="curve" smooth="yes"/>
      <point x="1349" y="351" type="line" smooth="yes"/>
      <point x="1349" y="123"/>
      <point x="1247" y="51"/>
      <point x="979" y="51" type="curve" smooth="yes"/>
      <point x="551" y="51" type="line" smooth="yes"/>
      <point x="342" y="51"/>
      <point x="113" y="81"/>
      <point x="113" y="351" type="curve" smooth="yes"/>
      <point x="113" y="658" type="line" smooth="yes"/>
      <point x="113" y="661"/>
      <point x="111" y="663"/>
      <point x="107" y="662" type="curve" smooth="yes"/>
      <point x="93" y="658"/>
      <point x="78" y="650"/>
      <point x="65" y="639" type="curve"/>
      <point x="63" y="638"/>
      <point x="61" y="635"/>
      <point x="61" y="633" type="curve" smooth="yes"/>
      <point x="61" y="351" type="line" smooth="yes"/>
      <point x="61" y="34"/>
      <point x="335" y="-1"/>
      <point x="551" y="-1" type="curve" smooth="yes"/>
    </contour>
  </outline>
</glyph>
<glyph name="gaf-ar" format="2">
  <advance width="1654"/>
  <unicode hex="06AF"/>
  <guideline x="1551" y="987" angle="90"/>
  <outline>
    <contour>
      <point x="810" y="1167" type="line"/>
      <point x="810" y="1098" type="line"/>
      <point x="1522" y="1597" type="line"/>
      <point x="1518" y="1613"/>
      <point x="1506" y="1634"/>
      <point x="1495" y="1643" type="curve"/>
    </contour>
    <component base="keheh-ar"/>
  </outline>
</glyph>
<glyph name="fullstop-ar" format="2">
  <advance width="674"/>
  <unicode hex="06D4"/>
  <outline>
    <contour>
      <point x="198" y="7" type="curve" smooth="yes"/>
      <point x="474" y="7" type="line" smooth="yes"/>
      <point x="517" y="7"/>
      <point x="554" y="41"/>
      <point x="554" y="85" type="curve" smooth="yes"/>
      <point x="554" y="128"/>
      <point x="517" y="165"/>
      <point x="474" y="165" type="curve" smooth="yes"/>
      <point x="198" y="165" type="line" smooth="yes"/>
      <point x="154" y="165"/>
      <point x="120" y="128"/>
      <point x="120" y="85" type="curve" smooth="yes"/>
      <point x="120" y="41"/>
      <point x="154" y="7"/>
    </contour>
  </outline>
</glyph>
<glyph name="fourFarsi-ar" format="2">
  <advance width="1217"/>
  <unicode hex="06F4"/>
  <outline>
    <contour>
      <point x="561" y="0" type="line"/>
      <point x="576" y="6" type="line" smooth="yes"/>
      <point x="597" y="14"/>
      <point x="606" y="30"/>
      <point x="598" y="54" type="curve" smooth="yes"/>
      <point x="323" y="855" type="line"/>
      <point x="1079" y="844" type="line" smooth="yes"/>
      <point x="1082" y="844"/>
      <point x="1084" y="846"/>
      <point x="1085" y="849" type="curve" smooth="yes"/>
      <point x="1091" y="863"/>
      <point x="1093" y="877"/>
      <point x="1093" y="891" type="curve" smooth="yes"/>
      <point x="1093" y="895"/>
      <point x="1091" y="896"/>
      <point x="1088" y="896" type="curve" smooth="yes"/>
      <point x="850" y="899" type="line" smooth="yes"/>
      <point x="668" y="901"/>
      <point x="552" y="1053"/>
      <point x="552" y="1209" type="curve" smooth="yes"/>
      <point x="552" y="1339"/>
      <point x="626" y="1473"/>
      <point x="819" y="1473" type="curve" smooth="yes"/>
      <point x="997" y="1473" type="line" smooth="yes"/>
      <point x="1000" y="1473"/>
      <point x="1002" y="1475"/>
      <point x="1001" y="1479" type="curve" smooth="yes"/>
      <point x="998" y="1495"/>
      <point x="991" y="1508"/>
      <point x="980" y="1520" type="curve" smooth="yes"/>
      <point x="978" y="1522"/>
      <point x="974" y="1526"/>
      <point x="968" y="1526" type="curve" smooth="yes"/>
      <point x="819" y="1526" type="line" smooth="yes"/>
      <point x="599" y="1526"/>
      <point x="501" y="1376"/>
      <point x="501" y="1209" type="curve" smooth="yes"/>
      <point x="501" y="1118"/>
      <point x="539" y="1009"/>
      <point x="626" y="924" type="curve" smooth="yes"/>
      <point x="640" y="911"/>
      <point x="642" y="903"/>
      <point x="622" y="903" type="curve" smooth="yes"/>
      <point x="339" y="907" type="line" smooth="yes"/>
      <point x="316" y="907"/>
      <point x="301" y="917"/>
      <point x="294" y="939" type="curve" smooth="yes"/>
      <point x="97" y="1522" type="line" smooth="yes"/>
      <point x="96" y="1524"/>
      <point x="95" y="1525"/>
      <point x="92" y="1526" type="curve" smooth="yes"/>
      <point x="78" y="1529"/>
      <point x="65" y="1529"/>
      <point x="51" y="1526" type="curve" smooth="yes"/>
      <point x="48" y="1525"/>
      <point x="46" y="1524"/>
      <point x="47" y="1520" type="curve" smooth="yes"/>
    </contour>
  </outline>
</glyph>
<glyph name="sixFarsi-ar" format="2">
  <advance width="1144"/>
  <unicode hex="06F6"/>
  <outline>
    <contour>
      <point x="362" y="36" type="curve" smooth="yes"/>
      <point x="568" y="444"/>
      <point x="804" y="650"/>
      <point x="1068" y="842" type="curve" smooth="yes"/>
      <point x="1070" y="843"/>
      <point x="1069" y="846"/>
      <point x="1069" y="848" type="curve" smooth="yes"/>
      <point x="1066" y="864"/>
      <point x="1061" y="878"/>
      <point x="1052" y="890" type="curve" smooth="yes"/>
      <point x="1050" y="893"/>
      <point x="1048" y="894"/>
      <point x="1045" y="892" type="curve" smooth="yes"/>
      <point x="942" y="817"/>
      <point x="841" y="736"/>
      <point x="743" y="643" type="curve"/>
      <point x="617" y="661"/>
      <point x="494" y="684"/>
      <point x="402" y="731" type="curve" smooth="yes"/>
      <point x="219" y="825"/>
      <point x="175" y="1108"/>
      <point x="416" y="1277" type="curve" smooth="yes"/>
      <point x="554" y="1374" type="line" smooth="yes"/>
      <point x="558" y="1377"/>
      <point x="557" y="1377"/>
      <point x="553" y="1380" type="curve" smooth="yes"/>
      <point x="542" y="1389"/>
      <point x="526" y="1394"/>
      <point x="505" y="1397" type="curve" smooth="yes"/>
      <point x="503" y="1397"/>
      <point x="500" y="1398"/>
      <point x="498" y="1396" type="curve" smooth="yes"/>
      <point x="386" y="1319" type="line" smooth="yes"/>
      <point x="109" y="1129"/>
      <point x="163" y="795"/>
      <point x="378" y="685" type="curve" smooth="yes"/>
      <point x="467" y="639"/>
      <point x="582" y="615"/>
      <point x="697" y="597" type="curve"/>
      <point x="560" y="458"/>
      <point x="432" y="288"/>
      <point x="316" y="59" type="curve" smooth="yes"/>
      <point x="315" y="57"/>
      <point x="315" y="55"/>
      <point x="318" y="53" type="curve" smooth="yes"/>
      <point x="328" y="44"/>
      <point x="340" y="38"/>
      <point x="356" y="33" type="curve" smooth="yes"/>
      <point x="359" y="32"/>
      <point x="361" y="33"/>
    </contour>
  </outline>
</glyph>
<glyph name="endash" format="2">
  <advance width="1292"/>
  <unicode hex="2013"/>
  <outline>
    <contour>
      <point x="1164" y="560" type="line"/>
      <point x="127" y="560" type="line"/>
      <point x="127" y="508" type="line"/>
      <point x="1164" y="508" type="line"/>
    </contour>
  </outline>
</glyph>
<glyph name="emdash" format="2">
  <advance width="1763"/>
  <unicode hex="2014"/>
  <outline>
    <contour>
      <point x="1640" y="560" type="line"/>
      <point x="127" y="560" type="line"/>
      <point x="127" y="508" type="line"/>
      <point x="1640" y="508" type="line"/>
    </contour>
  </outline>
</glyph>
<glyph name="bullet" format="2">
  <advance width="1229"/>
  <unicode hex="2022"/>
  <outline>
    <contour>
      <point x="625" y="481" type="curve" smooth="yes"/>
      <point x="701" y="481"/>
      <point x="762" y="542"/>
      <point x="762" y="618" type="curve" smooth="yes"/>
      <point x="762" y="695"/>
      <point x="701" y="756"/>
      <point x="625" y="756" type="curve" smooth="yes"/>
      <point x="548" y="756"/>
      <point x="487" y="695"/>
      <point x="487" y="618" type="curve" smooth="yes"/>
      <point x="487" y="542"/>
      <point x="548" y="481"/>
    </contour>
  </outline>
</glyph>
<glyph name="partialdiff" format="2">
  <advance width="1126"/>
  <unicode hex="2202"/>
  <note>
uni2202
</note>
  <outline>
    <contour>
      <point x="969" y="669" type="curve"/>
      <point x="873" y="805"/>
      <point x="727" y="877"/>
      <point x="554" y="877" type="curve" smooth="yes"/>
      <point x="289" y="877"/>
      <point x="104" y="697"/>
      <point x="104" y="437" type="curve" smooth="yes"/>
      <point x="104" y="399" type="line" smooth="yes"/>
      <point x="104" y="149"/>
      <point x="280" y="-41"/>
      <point x="552" y="-41" type="curve" smooth="yes"/>
      <point x="733" y="-41"/>
      <point x="882" y="61"/>
      <point x="962" y="237" type="curve" smooth="yes"/>
      <point x="1001" y="324"/>
      <point x="1022" y="423"/>
      <point x="1022" y="532" type="curve" smooth="yes"/>
      <point x="1022" y="612" type="line" smooth="yes"/>
      <point x="1018" y="1071"/>
      <point x="842" y="1324"/>
      <point x="541" y="1324" type="curve" smooth="yes"/>
      <point x="412" y="1324"/>
      <point x="306" y="1285"/>
      <point x="227" y="1205" type="curve"/>
      <point x="254" y="1169" type="line"/>
      <point x="341" y="1248"/>
      <point x="419" y="1277"/>
      <point x="535" y="1277" type="curve" smooth="yes"/>
      <point x="800" y="1277"/>
      <point x="951" y="1061"/>
    </contour>
    <contour>
      <point x="554" y="829" type="curve" smooth="yes"/>
      <point x="769" y="829"/>
      <point x="923" y="709"/>
      <point x="971" y="575" type="curve"/>
      <point x="971" y="544" type="line" smooth="yes"/>
      <point x="971" y="227"/>
      <point x="799" y="6"/>
      <point x="552" y="6" type="curve" smooth="yes"/>
      <point x="305" y="6"/>
      <point x="156" y="189"/>
      <point x="156" y="400" type="curve" smooth="yes"/>
      <point x="156" y="427" type="line" smooth="yes"/>
      <point x="156" y="666"/>
      <point x="322" y="829"/>
    </contour>
  </outline>
</glyph>
<glyph name="radical" format="2">
  <advance width="1126"/>
  <unicode hex="221A"/>
  <note>
uni221A
</note>
  <outline>
    <contour>
      <point x="340" y="660" type="line"/>
      <point x="103" y="660" type="line"/>
      <point x="103" y="608" type="line"/>
      <point x="302" y="608" type="line"/>
      <point x="532" y="1" type="line"/>
      <point x="582" y="0" type="line"/>
      <point x="983" y="1281" type="line"/>
      <point x="927" y="1281" type="line"/>
      <point x="556" y="77" type="line"/>
    </contour>
  </outline>
</glyph>
<glyph name="notequal" format="2">
  <advance width="1020"/>
  <unicode hex="2260"/>
  <note>
uni003D
</note>
  <outline>
    <contour>
      <point x="911" y="896" type="line"/>
      <point x="654" y="896" type="line"/>
      <point x="795" y="1145" type="line"/>
      <point x="750" y="1168" type="line"/>
      <point x="595" y="896" type="line"/>
      <point x="107" y="896" type="line"/>
      <point x="107" y="844" type="line"/>
      <point x="566" y="844" type="line"/>
      <point x="373" y="503" type="line"/>
      <point x="107" y="503" type="line"/>
      <point x="107" y="451" type="line"/>
      <point x="343" y="451" type="line"/>
      <point x="201" y="201" type="line"/>
      <point x="247" y="178" type="line"/>
      <point x="402" y="451" type="line"/>
      <point x="911" y="451" type="line"/>
      <point x="911" y="503" type="line"/>
      <point x="431" y="503" type="line"/>
      <point x="624" y="844" type="line"/>
      <point x="911" y="844" type="line"/>
    </contour>
  </outline>
</glyph>
<glyph name="lozenge" format="2">
  <advance width="1047"/>
  <unicode hex="25CA"/>
  <note>
uni25CA
</note>
  <outline>
    <contour>
      <point x="92" y="638" type="line"/>
      <point x="498" y="0" type="line"/>
      <point x="547" y="0" type="line"/>
      <point x="952" y="638" type="line"/>
      <point x="547" y="1278" type="line"/>
      <point x="498" y="1278" type="line"/>
    </contour>
    <contour>
      <point x="886" y="638" type="line"/>
      <point x="522" y="55" type="line"/>
      <point x="159" y="638" type="line"/>
      <point x="522" y="1221" type="line"/>
    </contour>
  </outline>
</glyph>
<glyph name="_kafbowl" format="2">
  <advance width="1002"/>
  <outline>
    <contour>
      <point x="1002" y="52" type="line"/>
      <point x="575" y="52" type="line" smooth="yes"/>
      <point x="-138" y="52"/>
      <point x="29" y="706"/>
      <point x="194" y="854" type="curve"/>
      <point x="159" y="887" type="line"/>
      <point x="-36" y="721"/>
      <point x="-191" y="0"/>
      <point x="575" y="0" type="curve" smooth="yes"/>
      <point x="1002" y="0" type="line"/>
    </contour>
  </outline>
</glyph>
<glyph name="_sadkufihead" format="2">
  <advance width="1110"/>
  <outline>
    <contour>
      <point x="789" y="0" type="line" smooth="yes"/>
      <point x="967" y="0"/>
      <point x="1111" y="34"/>
      <point x="1111" y="267" type="curve" smooth="yes"/>
      <point x="1111" y="766"/>
      <point x="1049" y="922"/>
      <point x="511" y="922" type="curve" smooth="yes"/>
      <point x="250" y="922" type="line" smooth="yes"/>
      <point x="106" y="922"/>
      <point x="1" y="913"/>
      <point x="1" y="889" type="curve" smooth="yes"/>
      <point x="1" y="870" type="line"/>
      <point x="511" y="870" type="line" smooth="yes"/>
      <point x="1007" y="870"/>
      <point x="1059" y="751"/>
      <point x="1059" y="267" type="curve" smooth="yes"/>
      <point x="1059" y="78"/>
      <point x="957" y="52"/>
      <point x="789" y="52" type="curve" smooth="yes"/>
      <point x="1" y="52" type="line"/>
      <point x="1" y="0" type="line"/>
    </contour>
  </outline>
</glyph>
<glyph name="_tahsmall" format="2">
  <advance width="0"/>
  <anchor x="0" y="0" name="_top"/>
  <outline>
    <contour>
      <point x="168" y="37" type="line" smooth="yes"/>
      <point x="271" y="37"/>
      <point x="311" y="53"/>
      <point x="313" y="177" type="curve" smooth="yes"/>
      <point x="314" y="279"/>
      <point x="260" y="397"/>
      <point x="121" y="397" type="curve" smooth="yes"/>
      <point x="1" y="397"/>
      <point x="-48" y="329"/>
      <point x="-109" y="200" type="curve"/>
      <point x="-92" y="145" type="line"/>
      <point x="-29" y="267"/>
      <point x="36" y="344"/>
      <point x="108" y="344" type="curve" smooth="yes"/>
      <point x="249" y="344"/>
      <point x="260" y="219"/>
      <point x="260" y="149" type="curve" smooth="yes"/>
      <point x="260" y="86"/>
      <point x="229" y="89"/>
      <point x="168" y="89" type="curve" smooth="yes"/>
      <point x="-102" y="89" type="line"/>
      <point x="-102" y="37" type="line"/>
    </contour>
    <contour>
      <point x="-73" y="37" type="line"/>
      <point x="-73" y="573" type="line" smooth="yes"/>
      <point x="-73" y="576"/>
      <point x="-76" y="578"/>
      <point x="-79" y="578" type="curve" smooth="yes"/>
      <point x="-95" y="578"/>
      <point x="-109" y="574"/>
      <point x="-121" y="568" type="curve" smooth="yes"/>
      <point x="-124" y="567"/>
      <point x="-125" y="565"/>
      <point x="-125" y="562" type="curve" smooth="yes"/>
      <point x="-125" y="89" type="line"/>
      <point x="-269" y="89" type="line"/>
      <point x="-269" y="71" type="line" smooth="yes"/>
      <point x="-269" y="53"/>
      <point x="-255" y="37"/>
      <point x="-226" y="37" type="curve" smooth="yes"/>
    </contour>
  </outline>
</glyph>
<glyph name="alef-ar.fina" format="2">
  <advance width="221"/>
  <anchor x="113" y="-111" name="bottom"/>
  <anchor x="99" y="1568" name="top"/>
  <outline>
    <contour>
      <point x="82" y="5" type="line" smooth="yes"/>
      <point x="82" y="2"/>
      <point x="84" y="0"/>
      <point x="87" y="0" type="curve" smooth="yes"/>
      <point x="241" y="0" type="line"/>
      <point x="241" y="52" type="line"/>
      <point x="139" y="52" type="line" smooth="yes"/>
      <point x="136" y="52"/>
      <point x="134" y="54"/>
      <point x="134" y="57" type="curve" smooth="yes"/>
      <point x="134" y="1513" type="line" smooth="yes"/>
      <point x="134" y="1516"/>
      <point x="131" y="1518"/>
      <point x="128" y="1517" type="curve" smooth="yes"/>
      <point x="113" y="1513"/>
      <point x="99" y="1507"/>
      <point x="86" y="1497" type="curve"/>
      <point x="84" y="1496"/>
      <point x="82" y="1493"/>
      <point x="82" y="1491" type="curve" smooth="yes"/>
    </contour>
  </outline>
</glyph>
<glyph name="alefHamzaabove-ar.fina" format="2">
  <advance width="471"/>
  <anchor x="224" y="-120" name="bottom"/>
  <anchor x="113" y="1865" name="top"/>
  <outline>
    <contour>
      <point x="82" y="5" type="line" smooth="yes"/>
      <point x="82" y="2"/>
      <point x="84" y="0"/>
      <point x="87" y="0" type="curve" smooth="yes"/>
      <point x="241" y="0" type="line"/>
      <point x="241" y="52" type="line"/>
      <point x="139" y="52" type="line" smooth="yes"/>
      <point x="136" y="52"/>
      <point x="134" y="54"/>
      <point x="134" y="57" type="curve" smooth="yes"/>
      <point x="134" y="1273" type="line" smooth="yes"/>
      <point x="134" y="1276"/>
      <point x="131" y="1278"/>
      <point x="128" y="1277" type="curve" smooth="yes"/>
      <point x="113" y="1273"/>
      <point x="99" y="1267"/>
      <point x="86" y="1257" type="curve"/>
      <point x="84" y="1256"/>
      <point x="82" y="1253"/>
      <point x="82" y="1251" type="curve" smooth="yes"/>
    </contour>
    <component base="_smallhamza" xOffset="35" yOffset="1552" identifier="3011DF47"/>
  </outline>
</glyph>
<glyph name="behDotless-ar.init" format="2">
  <advance width="666"/>
  <outline>
    <contour>
      <point x="245" y="0" type="line" smooth="yes"/>
      <point x="504" y="0"/>
      <point x="604" y="120"/>
      <point x="604" y="351" type="curve" smooth="yes"/>
      <point x="604" y="942" type="line" smooth="yes"/>
      <point x="604" y="945"/>
      <point x="601" y="946"/>
      <point x="598" y="946" type="curve" smooth="yes"/>
      <point x="583" y="944"/>
      <point x="569" y="940"/>
      <point x="556" y="934" type="curve" smooth="yes"/>
      <point x="554" y="933"/>
      <point x="552" y="932"/>
      <point x="552" y="929" type="curve" smooth="yes"/>
      <point x="552" y="351" type="line" smooth="yes"/>
      <point x="552" y="146"/>
      <point x="472" y="52"/>
      <point x="245" y="52" type="curve" smooth="yes"/>
      <point x="-193" y="52" type="line"/>
      <point x="-193" y="0" type="line"/>
    </contour>
  </outline>
</glyph>
<glyph name="behDotless-ar.medi" format="2">
  <advance width="696"/>
  <outline>
    <contour>
      <point x="270" y="52" type="line"/>
      <point x="270" y="0" type="line"/>
      <point x="737" y="0" type="line"/>
      <point x="737" y="52" type="line"/>
    </contour>
    <contour>
      <point x="552" y="0" type="line" smooth="yes"/>
      <point x="585" y="0"/>
      <point x="604" y="19"/>
      <point x="604" y="52" type="curve" smooth="yes"/>
      <point x="604" y="942" type="line" smooth="yes"/>
      <point x="604" y="945"/>
      <point x="601" y="946"/>
      <point x="598" y="946" type="curve" smooth="yes"/>
      <point x="583" y="944"/>
      <point x="569" y="940"/>
      <point x="556" y="934" type="curve" smooth="yes"/>
      <point x="554" y="933"/>
      <point x="552" y="932"/>
      <point x="552" y="929" type="curve" smooth="yes"/>
      <point x="552" y="57" type="line" smooth="yes"/>
      <point x="552" y="54"/>
      <point x="550" y="52"/>
      <point x="547" y="52" type="curve" smooth="yes"/>
      <point x="-183" y="52" type="line"/>
      <point x="-183" y="0" type="line"/>
    </contour>
  </outline>
</glyph>
<glyph name="fehDotless-ar.init" format="2">
  <advance width="1038"/>
  <outline>
    <component base="_roundhead" xOffset="82" identifier="166D950A"/>
    <contour>
      <point x="-41" y="52" type="line"/>
      <point x="-41" y="0" type="line"/>
      <point x="514" y="0" type="line"/>
      <point x="514" y="52" type="line"/>
    </contour>
  </outline>
</glyph>
<glyph name="hah-ar.init" format="2">
  <advance width="1024"/>
  <anchor x="344" y="-180" name="bottom"/>
  <anchor x="394" y="1138" name="top"/>
  <outline>
    <contour>
      <point x="940" y="0" type="line"/>
      <point x="940" y="207"/>
      <point x="903" y="964"/>
      <point x="342" y="959" type="curve" smooth="yes"/>
      <point x="275" y="958"/>
      <point x="199" y="945"/>
      <point x="116" y="920" type="curve"/>
      <point x="113" y="920"/>
      <point x="112" y="917"/>
      <point x="112" y="914" type="curve" smooth="yes"/>
      <point x="112" y="901"/>
      <point x="117" y="887"/>
      <point x="125" y="874" type="curve" smooth="yes"/>
      <point x="127" y="871"/>
      <point x="129" y="870"/>
      <point x="132" y="871" type="curve" smooth="yes"/>
      <point x="211" y="895"/>
      <point x="279" y="906"/>
      <point x="342" y="907" type="curve" smooth="yes"/>
      <point x="816" y="911"/>
      <point x="880" y="303"/>
      <point x="887" y="52" type="curve"/>
      <point x="-44" y="52" type="line"/>
      <point x="-44" y="0" type="line"/>
    </contour>
  </outline>
</glyph>
<glyph name="heh-ar.fina" format="2">
  <advance width="1049"/>
  <anchor x="311" y="-176" name="bottom"/>
  <anchor x="500" y="1138" name="top"/>
  <outline>
    <contour>
      <point x="520" y="52" type="line"/>
      <point x="520" y="0" type="line"/>
      <point x="1090" y="0" type="line"/>
      <point x="1090" y="52" type="line"/>
    </contour>
    <component base="_roundhead" xOffset="82" identifier="67C71343"/>
  </outline>
</glyph>
<glyph name="heh-ar.init" format="2">
  <advance width="1381"/>
  <anchor x="626" y="-177" name="bottom"/>
  <anchor x="606" y="1452" name="top"/>
  <outline>
    <contour>
      <point x="-43" y="0" type="line"/>
      <point x="1301" y="0" type="line"/>
      <point x="1301" y="622" type="line" smooth="yes"/>
      <point x="1301" y="808"/>
      <point x="1184" y="918"/>
      <point x="1031" y="918" type="curve" smooth="yes"/>
      <point x="725" y="918" type="line"/>
      <point x="725" y="1157" type="line" smooth="yes"/>
      <point x="725" y="1160"/>
      <point x="722" y="1161"/>
      <point x="719" y="1161" type="curve" smooth="yes"/>
      <point x="703" y="1161"/>
      <point x="689" y="1156"/>
      <point x="677" y="1148" type="curve" smooth="yes"/>
      <point x="675" y="1147"/>
      <point x="673" y="1146"/>
      <point x="673" y="1143" type="curve" smooth="yes"/>
      <point x="673" y="918" type="line"/>
      <point x="423" y="918" type="line" smooth="yes"/>
      <point x="209" y="918"/>
      <point x="92" y="764"/>
      <point x="92" y="630" type="curve" smooth="yes"/>
      <point x="92" y="52" type="line"/>
      <point x="-43" y="52" type="line"/>
    </contour>
    <contour>
      <point x="725" y="52" type="line"/>
      <point x="725" y="866" type="line"/>
      <point x="1031" y="866" type="line" smooth="yes"/>
      <point x="1156" y="866"/>
      <point x="1249" y="778"/>
      <point x="1249" y="622" type="curve" smooth="yes"/>
      <point x="1249" y="52" type="line"/>
    </contour>
    <contour>
      <point x="144" y="52" type="line"/>
      <point x="144" y="630" type="line" smooth="yes"/>
      <point x="144" y="740"/>
      <point x="241" y="866"/>
      <point x="423" y="866" type="curve" smooth="yes"/>
      <point x="673" y="866" type="line"/>
      <point x="673" y="52" type="line"/>
    </contour>
  </outline>
</glyph>
<glyph name="heh-ar.medi.ss01" format="2">
  <advance width="1151"/>
  <anchor x="400" y="-185" name="bottom"/>
  <anchor x="435" y="1450" name="top"/>
  <outline>
    <contour>
      <point x="987" y="52" type="line"/>
      <point x="948" y="0" type="line"/>
      <point x="1191" y="0" type="line"/>
      <point x="1191" y="52" type="line"/>
    </contour>
    <component base="heh-ar.init.ss01"/>
  </outline>
</glyph>
<glyph name="heh-ar.medi.ss02" format="2">
  <advance width="946"/>
  <anchor x="301" y="-626" name="bottom"/>
  <anchor x="488" y="1129" name="top"/>
  <outline>
    <contour>
      <point x="-41" y="0" type="line"/>
      <point x="41" y="0" type="line"/>
      <point x="60" y="-362"/>
      <point x="293" y="-509"/>
      <point x="496" y="-509" type="curve" smooth="yes"/>
      <point x="753" y="-509"/>
      <point x="842" y="-377"/>
      <point x="842" y="-268" type="curve" smooth="yes"/>
      <point x="842" y="-120"/>
      <point x="777" y="-42"/>
      <point x="678" y="0" type="curve"/>
      <point x="986" y="0" type="line"/>
      <point x="986" y="52" type="line"/>
      <point x="575" y="52" type="line"/>
      <point x="759" y="127"/>
      <point x="878" y="282"/>
      <point x="878" y="496" type="curve" smooth="yes"/>
      <point x="878" y="722"/>
      <point x="790" y="952"/>
      <point x="553" y="952" type="curve" smooth="yes"/>
      <point x="154" y="952"/>
      <point x="45" y="191"/>
      <point x="40" y="52" type="curve"/>
      <point x="-41" y="52" type="line"/>
    </contour>
    <contour>
      <point x="92" y="52" type="line"/>
      <point x="97" y="183"/>
      <point x="203" y="900"/>
      <point x="553" y="900" type="curve" smooth="yes"/>
      <point x="750" y="900"/>
      <point x="826" y="707"/>
      <point x="826" y="496" type="curve" smooth="yes"/>
      <point x="826" y="222"/>
      <point x="589" y="54"/>
      <point x="311" y="52" type="curve" smooth="yes"/>
    </contour>
    <contour>
      <point x="93" y="0" type="curve"/>
      <point x="351" y="0" type="line"/>
      <point x="454" y="-8"/>
      <point x="790" y="10"/>
      <point x="790" y="-268" type="curve" smooth="yes"/>
      <point x="790" y="-353"/>
      <point x="717" y="-457"/>
      <point x="496" y="-457" type="curve" smooth="yes"/>
      <point x="315" y="-457"/>
      <point x="111" y="-327"/>
    </contour>
  </outline>
</glyph>
<glyph name="jeem-ar.fina" format="2">
  <advance width="1222"/>
  <anchor x="270" y="-717" name="bottom"/>
  <anchor x="501" y="1129" name="top"/>
  <outline>
    <contour>
      <point x="1124" y="0" type="line"/>
      <point x="1124" y="207"/>
      <point x="1087" y="965"/>
      <point x="526" y="960" type="curve" smooth="yes"/>
      <point x="459" y="959"/>
      <point x="383" y="946"/>
      <point x="300" y="921" type="curve"/>
      <point x="297" y="921"/>
      <point x="296" y="918"/>
      <point x="296" y="915" type="curve" smooth="yes"/>
      <point x="296" y="902"/>
      <point x="301" y="888"/>
      <point x="309" y="875" type="curve" smooth="yes"/>
      <point x="311" y="872"/>
      <point x="313" y="871"/>
      <point x="316" y="872" type="curve" smooth="yes"/>
      <point x="395" y="896"/>
      <point x="463" y="907"/>
      <point x="526" y="908" type="curve" smooth="yes"/>
      <point x="1000" y="912"/>
      <point x="1064" y="303"/>
      <point x="1071" y="52" type="curve"/>
      <point x="490" y="55" type="line" smooth="yes"/>
      <point x="232" y="56"/>
      <point x="80" y="-97"/>
      <point x="80" y="-281" type="curve" smooth="yes"/>
      <point x="80" y="-453"/>
      <point x="213" y="-618"/>
      <point x="548" y="-618" type="curve" smooth="yes"/>
      <point x="618" y="-618" type="line" smooth="yes"/>
      <point x="620" y="-618"/>
      <point x="622" y="-617"/>
      <point x="624" y="-615" type="curve" smooth="yes"/>
      <point x="636" y="-602"/>
      <point x="644" y="-587"/>
      <point x="650" y="-572" type="curve" smooth="yes"/>
      <point x="652" y="-568"/>
      <point x="651" y="-566"/>
      <point x="647" y="-566" type="curve" smooth="yes"/>
      <point x="548" y="-566" type="line" smooth="yes"/>
      <point x="245" y="-566"/>
      <point x="132" y="-427"/>
      <point x="132" y="-281" type="curve" smooth="yes"/>
      <point x="132" y="-127"/>
      <point x="262" y="4"/>
      <point x="490" y="3" type="curve" smooth="yes"/>
    </contour>
    <contour>
      <point x="1030" y="52" type="line"/>
      <point x="1030" y="0" type="line"/>
      <point x="1263" y="0" type="line"/>
      <point x="1263" y="52" type="line"/>
    </contour>
    <component base="_dot" xOffset="962" identifier="C440B967"/>
  </outline>
</glyph>
<glyph name="kaf-ar.init" format="2">
  <advance width="915"/>
  <anchor x="347" y="-154" name="bottom"/>
  <anchor x="418" y="1547" name="top"/>
  <outline>
    <contour>
      <point x="-41" y="0" type="line"/>
      <point x="829" y="0" type="line"/>
      <point x="835" y="515"/>
      <point x="647" y="825"/>
      <point x="127" y="995" type="curve"/>
      <point x="814" y="1480" type="line"/>
      <point x="816" y="1482"/>
      <point x="817" y="1484"/>
      <point x="817" y="1486" type="curve" smooth="yes"/>
      <point x="818" y="1504"/>
      <point x="817" y="1520"/>
      <point x="812" y="1534" type="curve" smooth="yes"/>
      <point x="810" y="1538"/>
      <point x="809" y="1540"/>
      <point x="805" y="1537" type="curve" smooth="yes"/>
      <point x="70" y="1018" type="line"/>
      <point x="70" y="960" type="line"/>
      <point x="584" y="806"/>
      <point x="770" y="529"/>
      <point x="777" y="52" type="curve"/>
      <point x="-41" y="52" type="line"/>
    </contour>
  </outline>
</glyph>
<glyph name="kaf-ar.medi" format="2">
  <advance width="915"/>
  <anchor x="387" y="-148" name="bottom"/>
  <anchor x="385" y="1493" name="top"/>
  <outline>
    <component base="kaf-ar.init"/>
    <contour>
      <point x="788" y="52" type="line"/>
      <point x="788" y="0" type="line"/>
      <point x="956" y="0" type="line"/>
      <point x="956" y="52" type="line"/>
    </contour>
  </outline>
</glyph>
<glyph name="lam-ar.init" format="2">
  <advance width="479"/>
  <anchor x="228" y="-135" name="bottom"/>
  <anchor x="235" y="1571" name="top"/>
  <outline>
    <contour>
      <point x="40" y="0" type="line" smooth="yes"/>
      <point x="302" y="0"/>
      <point x="397" y="119"/>
      <point x="397" y="375" type="curve" smooth="yes"/>
      <point x="397" y="1510" type="line" smooth="yes"/>
      <point x="397" y="1514"/>
      <point x="394" y="1515"/>
      <point x="391" y="1515" type="curve" smooth="yes"/>
      <point x="377" y="1517"/>
      <point x="363" y="1513"/>
      <point x="349" y="1505" type="curve" smooth="yes"/>
      <point x="346" y="1503"/>
      <point x="345" y="1503"/>
      <point x="345" y="1500" type="curve" smooth="yes"/>
      <point x="345" y="375" type="line" smooth="yes"/>
      <point x="345" y="145"/>
      <point x="270" y="52"/>
      <point x="40" y="52" type="curve" smooth="yes"/>
      <point x="-49" y="52" type="line"/>
      <point x="-49" y="0" type="line"/>
    </contour>
  </outline>
</glyph>
<glyph name="lam_alefHamzaabove-ar.fina" format="2">
  <advance width="975"/>
  <anchor x="314" y="-131" name="bottom"/>
  <anchor x="266" y="1821" name="top"/>
  <outline>
    <component base="lam_alefHamzaabove-ar"/>
    <contour>
      <point x="831" y="52" type="line"/>
      <point x="831" y="0" type="line"/>
      <point x="1016" y="0" type="line"/>
      <point x="1016" y="52" type="line"/>
    </contour>
  </outline>
</glyph>
<glyph name="lam_alefHamzabelow-ar.fina" format="2">
  <advance width="975"/>
  <anchor x="317" y="-651" name="bottom"/>
  <anchor x="279" y="1413" name="top"/>
  <outline>
    <contour>
      <point x="831" y="52" type="line"/>
      <point x="831" y="0" type="line"/>
      <point x="1016" y="0" type="line"/>
      <point x="1016" y="52" type="line"/>
    </contour>
    <component base="_smallhamza" xOffset="192" yOffset="-360" identifier="3D656089"/>
    <component base="lam_alef-ar"/>
  </outline>
</glyph>
<glyph name="meem-ar.init" format="2">
  <advance width="1022"/>
  <anchor x="396" y="-162" name="bottom"/>
  <anchor x="390" y="1101" name="top"/>
  <outline>
    <component base="_roundhead" xOffset="66" identifier="6D75F7DA"/>
    <contour>
      <point x="-41" y="52" type="line"/>
      <point x="-41" y="0" type="line"/>
      <point x="422" y="0" type="line"/>
      <point x="422" y="52" type="line"/>
    </contour>
  </outline>
</glyph>
<glyph name="meem-ar.medi" format="2">
  <advance width="1022"/>
  <anchor x="405" y="-197" name="bottom"/>
  <anchor x="434" y="1057" name="top"/>
  <outline>
    <component base="meem-ar.init"/>
    <contour>
      <point x="850" y="52" type="line"/>
      <point x="850" y="0" type="line"/>
      <point x="1063" y="0" type="line"/>
      <point x="1063" y="52" type="line"/>
    </contour>
  </outline>
</glyph>
<glyph name="oe-ar.fina" format="2">
  <advance width="1026"/>
  <outline>
    <component base="oe-ar"/>
    <contour>
      <point x="913" y="52" type="line"/>
      <point x="913" y="0" type="line"/>
      <point x="1059" y="0" type="line"/>
      <point x="1059" y="52" type="line"/>
    </contour>
  </outline>
</glyph>
<glyph name="reh-ar.fina" format="2">
  <advance width="490"/>
  <anchor x="250" y="-548" name="bottom"/>
  <anchor x="250" y="1126" name="top"/>
  <outline>
    <component base="reh-ar" xOffset="20"/>
    <contour>
      <point x="371" y="52" type="line"/>
      <point x="371" y="0" type="line"/>
      <point x="540" y="0" type="line"/>
      <point x="540" y="52" type="line"/>
    </contour>
  </outline>
</glyph>
<glyph name="sad-ar.fina" format="2">
  <advance width="2370"/>
  <anchor x="1267" y="-191" name="bottom"/>
  <anchor x="690" y="985" name="top"/>
  <outline>
    <component base="sad-ar"/>
    <contour>
      <point x="1949" y="52" type="line"/>
      <point x="1949" y="0" type="line"/>
      <point x="2410" y="0" type="line"/>
      <point x="2410" y="52" type="line"/>
    </contour>
  </outline>
</glyph>
<glyph name="seen-ar.init" format="2">
  <advance width="1343"/>
  <anchor x="583" y="-145" name="bottom"/>
  <anchor x="609" y="1077" name="top"/>
  <outline>
    <contour>
      <point x="912" y="0" type="line" smooth="yes"/>
      <point x="1056" y="0"/>
      <point x="1263" y="46"/>
      <point x="1263" y="325" type="curve" smooth="yes"/>
      <point x="1263" y="942" type="line" smooth="yes"/>
      <point x="1263" y="945"/>
      <point x="1260" y="946"/>
      <point x="1257" y="946" type="curve" smooth="yes"/>
      <point x="1243" y="945"/>
      <point x="1229" y="941"/>
      <point x="1215" y="934" type="curve" smooth="yes"/>
      <point x="1213" y="933"/>
      <point x="1211" y="932"/>
      <point x="1211" y="929" type="curve" smooth="yes"/>
      <point x="1211" y="325" type="line" smooth="yes"/>
      <point x="1211" y="89"/>
      <point x="1044" y="52"/>
      <point x="912" y="52" type="curve" smooth="yes"/>
      <point x="840" y="52" type="line"/>
      <point x="840" y="862" type="line" smooth="yes"/>
      <point x="840" y="865"/>
      <point x="837" y="866"/>
      <point x="834" y="866" type="curve" smooth="yes"/>
      <point x="820" y="865"/>
      <point x="806" y="862"/>
      <point x="792" y="855" type="curve" smooth="yes"/>
      <point x="790" y="854"/>
      <point x="788" y="853"/>
      <point x="788" y="850" type="curve" smooth="yes"/>
      <point x="788" y="66" type="line" smooth="yes"/>
      <point x="788" y="57"/>
      <point x="783" y="52"/>
      <point x="774" y="52" type="curve" smooth="yes"/>
      <point x="421" y="52" type="line"/>
      <point x="422" y="777" type="line" smooth="yes"/>
      <point x="422" y="780"/>
      <point x="420" y="781"/>
      <point x="417" y="781" type="curve" smooth="yes"/>
      <point x="402" y="782"/>
      <point x="388" y="777"/>
      <point x="375" y="772" type="curve" smooth="yes"/>
      <point x="372" y="771"/>
      <point x="370" y="769"/>
      <point x="370" y="766" type="curve" smooth="yes"/>
      <point x="370" y="66" type="line" smooth="yes"/>
      <point x="370" y="57"/>
      <point x="365" y="52"/>
      <point x="356" y="52" type="curve" smooth="yes"/>
      <point x="-42" y="52" type="line"/>
      <point x="-41" y="0" type="line"/>
    </contour>
  </outline>
</glyph>
<glyph name="tah-ar.init.ss01" format="2">
  <advance width="1486"/>
  <anchor x="535" y="-142" name="bottom"/>
  <anchor x="939" y="1392" name="top"/>
  <outline>
    <contour>
      <point x="-66" y="52" type="line"/>
      <point x="-66" y="0" type="line"/>
      <point x="199" y="0" type="line"/>
      <point x="199" y="52" type="line"/>
    </contour>
    <component base="tah-ar.ss01" xOffset="-159"/>
  </outline>
</glyph>
<glyph name="tehMarbuta-ar.fina" format="2">
  <advance width="1038"/>
  <anchor x="337" y="-152" name="bottom"/>
  <anchor x="488" y="1526" name="top"/>
  <outline>
    <contour>
      <point x="516" y="52" type="line"/>
      <point x="516" y="0" type="line"/>
      <point x="1079" y="0" type="line"/>
      <point x="1079" y="52" type="line"/>
    </contour>
    <component base="_roundhead" xOffset="82" identifier="EF92A385"/>
    <component base="_twodots" xOffset="547" yOffset="1214" identifier="B2BD559B"/>
  </outline>
</glyph>
